<svg width="1957" height="520" xmlns="http://www.w3.org/2000/svg" xmlns:xlink="http://www.w3.org/1999/xlink" overflow="hidden"><defs><clipPath id="clip0"><rect x="-23" y="1126" width="1957" height="520"/></clipPath></defs><g clip-path="url(#clip0)" transform="translate(23 -1126)"><path d="M1588 1380 1602.93 1514.93" stroke="#BFBFBF" stroke-width="2.33333" stroke-miterlimit="8" fill="none" fill-rule="evenodd"/><path d="M0.15835-1.15587 18.9271 1.41538 18.6104 3.72712-0.15835 1.15587ZM8.07972-4.70086 21.9578 3.00814 6.51775 6.70066C5.89109 6.85052 5.26159 6.46401 5.11172 5.83735 4.96186 5.21069 5.34837 4.58118 5.97504 4.43132L18.4974 1.43658 18.2022 3.59113 6.94667-2.66109C6.3834-2.97397 6.18043-3.68423 6.49331-4.2475 6.80619-4.81076 7.51645-5.01374 8.07972-4.70086Z" fill="#BFBFBF" transform="matrix(1 0 0 -1 1598 1472.01)"/><path d="M0.158344-1.15587 22.005 1.83692 21.6883 4.14866-0.158344 1.15587ZM11.1576-4.27926 25.0357 3.42966 9.59567 7.12226C8.96901 7.27213 8.33951 6.88562 8.18964 6.25896 8.03977 5.6323 8.42628 5.0028 9.05294 4.85293L21.5753 1.85812 21.2801 4.01267 10.0245-2.23949C9.46127-2.55237 9.25829-3.26263 9.57117-3.82589 9.88405-4.38916 10.5943-4.59214 11.1576-4.27926Z" fill="#BFBFBF" transform="matrix(1 0 0 -1 1595 1448.43)"/><path d="M0.158344-1.15587 16.3054 1.05613 15.9887 3.36787-0.158344 1.15587ZM5.45795-5.06005 19.3361 2.64887 3.89604 6.34147C3.26938 6.49134 2.63988 6.10482 2.49001 5.47816 2.34014 4.8515 2.72665 4.222 3.35331 4.07213L15.8756 1.07733 15.5805 3.23188 4.32491-3.02028C3.76164-3.33316 3.55866-4.04342 3.87154-4.60669 4.18442-5.16996 4.89468-5.37293 5.45795-5.06005Z" fill="#BFBFBF" transform="matrix(1 0 0 -1 1601 1494.65)"/><path d="M0.15936-1.15573 34.6727 3.60318 34.3539 5.91464-0.15936 1.15573ZM23.8306-2.52253 37.702 5.19859 22.2587 8.87761C21.6319 9.02693 21.0027 8.63987 20.8534 8.01308 20.7041 7.38628 21.0912 6.75712 21.7179 6.6078L34.2429 3.624 33.9459 5.7783 22.6958-0.483757C22.1328-0.797131 21.9304-1.50757 22.2438-2.07056 22.5572-2.63355 23.2676-2.83591 23.8306-2.52253Z" fill="#BFBFBF" transform="matrix(1 0 0 -1 1590 1400.2)"/><path d="M0.159366-1.15573 26.5976 2.48988 26.2788 4.80134-0.159366 1.15573ZM15.7556-3.63589 29.6269 4.0853 14.1836 7.76425C13.5568 7.91357 12.9276 7.5265 12.7783 6.8997 12.629 6.27291 13.0161 5.64375 13.6429 5.49443L26.1679 2.5107 25.8708 4.66499 14.6207-1.59712C14.0577-1.9105 13.8554-2.62093 14.1688-3.18392 14.4822-3.74692 15.1926-3.94927 15.7556-3.63589Z" fill="#BFBFBF" transform="matrix(1 0 0 -1 1593 1425.09)"/><path d="M1620.95 1512C1617.06 1459.61 1617.71 1402.82 1635 1374" stroke="#BFBFBF" stroke-width="2.33333" stroke-miterlimit="8" fill="none" fill-rule="evenodd"/><path d="M0.159362-1.15573 43.1167 4.76758 42.798 7.07904-0.159362 1.15573ZM32.2747-1.35815 46.1461 6.363 30.7028 10.042C30.076 10.1913 29.4468 9.80424 29.2975 9.17745 29.1482 8.55066 29.5352 7.9215 30.162 7.77218L42.687 4.7884 42.39 6.9427 31.1399 0.680624C30.5769 0.367249 30.3745-0.343187 30.6879-0.906179 31.0013-1.46917 31.7117-1.67153 32.2747-1.35815Z" fill="#BFBFBF" transform="matrix(1 0 0 -1 1590 1380.36)"/><path d="M137.5 1292.5 934.5 1292.5 934.5 1333.1 865.15 1333.1 865.15 1381.5 292.517 1381.5 292.517 1333.1 137.5 1333.1Z" stroke="#D9D9D9" stroke-width="2.66667" stroke-miterlimit="8" fill="#F9F9F9" fill-rule="evenodd"/><path d="M1709.57 1236.09 1710.8 1239.02 1713.46 1246.41 1715.73 1253.87 1717.63 1261.46 1719.08 1269.17 1720.16 1276.87 1720.85 1284.71 1721.17 1292.5 1717.83 1292.63 1717.52 1284.88 1717.53 1284.96 1716.84 1277.21 1716.85 1277.29 1715.79 1269.67 1715.8 1269.75 1714.36 1262.12 1714.38 1262.22 1712.51 1254.72 1712.53 1254.8 1710.28 1247.42 1710.31 1247.5 1707.68 1240.19 1707.71 1240.27 1706.5 1237.39ZM1706.81 1252.87 1706.25 1232.5 1720.43 1247.14C1721.07 1247.8 1721.05 1248.86 1720.39 1249.5 1719.73 1250.14 1718.68 1250.12 1718.04 1249.46L1706.84 1237.9 1709.7 1236.69 1710.15 1252.78C1710.17 1253.7 1709.45 1254.47 1708.53 1254.49 1707.61 1254.52 1706.84 1253.79 1706.81 1252.87Z" fill="#2525C6"/><path d="M1116.17 1293.5 1116.17 1376.23C1116.17 1377.15 1115.42 1377.9 1114.5 1377.9 1113.58 1377.9 1112.83 1377.15 1112.83 1376.23L1112.83 1293.5C1112.83 1292.58 1113.58 1291.83 1114.5 1291.83 1115.42 1291.83 1116.17 1292.58 1116.17 1293.5ZM1121.89 1361.84 1114.5 1380.83 1107.11 1361.84C1106.78 1360.98 1107.2 1360.01 1108.06 1359.68 1108.92 1359.35 1109.89 1359.77 1110.22 1360.63L1116.05 1375.63 1112.95 1375.63 1118.78 1360.63C1119.11 1359.77 1120.08 1359.35 1120.94 1359.68 1121.8 1360.01 1122.22 1360.98 1121.89 1361.84Z" fill="#2525C6"/><path d="M326.5 1201.83 366.426 1201.83C367.347 1201.83 368.093 1202.58 368.093 1203.5 368.093 1204.42 367.347 1205.17 366.426 1205.17L326.5 1205.17C325.58 1205.17 324.833 1204.42 324.833 1203.5 324.833 1202.58 325.58 1201.83 326.5 1201.83ZM352.03 1196.11 371.025 1203.5 352.03 1210.89C351.173 1211.22 350.207 1210.8 349.873 1209.94 349.539 1209.08 349.964 1208.11 350.822 1207.78L365.822 1201.95 365.822 1205.05 350.822 1199.22C349.964 1198.89 349.539 1197.92 349.873 1197.06 350.207 1196.2 351.173 1195.78 352.03 1196.11Z" fill="#2525C6"/><path d="M629 1380 629 1516.96" stroke="#BFBFBF" stroke-width="2.33333" stroke-miterlimit="8" fill="none" fill-rule="evenodd"/><path d="M630.767 1381.46C667.679 1400.63 680.103 1447.15 658.516 1485.38 651.14 1498.44 640.346 1509.38 627.382 1516.93" stroke="#BFBFBF" stroke-width="2.33333" stroke-miterlimit="8" fill="none" fill-rule="evenodd"/><path d="M629 1445.83 665.853 1445.83 665.853 1448.17 629 1448.17ZM654.276 1441.25 669.072 1447 654.276 1452.75C653.675 1452.99 652.999 1452.69 652.765 1452.09 652.532 1451.49 652.829 1450.81 653.43 1450.58L665.43 1445.91 665.43 1448.09 653.43 1443.42C652.829 1443.19 652.532 1442.51 652.765 1441.91 652.999 1441.31 653.675 1441.01 654.276 1441.25Z" fill="#BFBFBF"/><path d="M629 1468.83 661.653 1468.83 661.653 1471.17 629 1471.17ZM650.076 1464.25 664.872 1470 650.076 1475.75C649.475 1475.99 648.799 1475.69 648.565 1475.09 648.332 1474.49 648.629 1473.81 649.23 1473.58L661.23 1468.91 661.23 1471.09 649.23 1466.42C648.629 1466.19 648.332 1465.51 648.565 1464.91 648.799 1464.31 649.475 1464.01 650.076 1464.25Z" fill="#BFBFBF"/><path d="M629 1490.83 650.253 1490.83 650.253 1493.17 629 1493.17ZM638.676 1486.25 653.472 1492 638.676 1497.75C638.075 1497.99 637.399 1497.69 637.165 1497.09 636.932 1496.49 637.229 1495.81 637.83 1495.58L649.83 1490.91 649.83 1493.09 637.83 1488.42C637.229 1488.19 636.932 1487.51 637.165 1486.91 637.399 1486.31 638.075 1486.01 638.676 1486.25Z" fill="#BFBFBF"/><path d="M629 1400.83 651.453 1400.83 651.453 1403.17 629 1403.17ZM639.876 1396.25 654.672 1402 639.876 1407.75C639.275 1407.99 638.599 1407.69 638.365 1407.09 638.132 1406.49 638.429 1405.81 639.03 1405.58L651.03 1400.91 651.03 1403.09 639.03 1398.42C638.429 1398.19 638.132 1397.51 638.365 1396.91 638.599 1396.31 639.275 1396.01 639.876 1396.25Z" fill="#BFBFBF"/><path d="M629 1423.83 662.253 1423.83 662.253 1426.17 629 1426.17ZM650.676 1419.25 665.472 1425 650.676 1430.75C650.075 1430.99 649.399 1430.69 649.165 1430.09 648.932 1429.49 649.229 1428.81 649.83 1428.58L661.83 1423.91 661.83 1426.09 649.83 1421.42C649.229 1421.19 648.932 1420.51 649.165 1419.91 649.399 1419.31 650.075 1419.01 650.676 1419.25Z" fill="#BFBFBF"/><path d="M401 1445.83 408 1445.83 408 1448.17 401 1448.17ZM410.333 1445.83 417.333 1445.83 417.333 1448.17 410.333 1448.17ZM419.667 1445.83 426.667 1445.83 426.667 1448.17 419.667 1448.17ZM429 1445.83 436 1445.83 436 1448.17 429 1448.17ZM438.333 1445.83 445.333 1445.83 445.333 1448.17 438.333 1448.17ZM447.667 1445.83 454.667 1445.83 454.667 1448.17 447.667 1448.17ZM457 1445.83 464 1445.83 464 1448.17 457 1448.17ZM466.333 1445.83 473.333 1445.83 473.333 1448.17 466.333 1448.17ZM475.667 1445.83 482.667 1445.83 482.667 1448.17 475.667 1448.17ZM485 1445.83 492 1445.83 492 1448.17 485 1448.17ZM494.333 1445.83 501.333 1445.83 501.333 1448.17 494.333 1448.17ZM503.667 1445.83 510.667 1445.83 510.667 1448.17 503.667 1448.17ZM513 1445.83 520 1445.83 520 1448.17 513 1448.17ZM522.333 1445.83 529.333 1445.83 529.333 1448.17 522.333 1448.17ZM531.667 1445.83 538.667 1445.83 538.667 1448.17 531.667 1448.17ZM541 1445.83 548 1445.83 548 1448.17 541 1448.17ZM550.333 1445.83 557.333 1445.83 557.333 1448.17 550.333 1448.17ZM559.667 1445.83 566.667 1445.83 566.667 1448.17 559.667 1448.17ZM569 1445.83 570.108 1445.83 570.108 1448.17 569 1448.17ZM565.393 1442.68 572.31 1447 565.393 1451.32C564.847 1451.66 564.127 1451.5 563.786 1450.95 563.444 1450.41 563.61 1449.69 564.157 1449.34L569.49 1446.01 569.49 1447.99 564.157 1444.66C563.61 1444.31 563.444 1443.59 563.786 1443.05 564.127 1442.5 564.847 1442.34 565.393 1442.68Z"/><path d="M34.1662 0.032851 33.9691 7.03008 31.6367 6.96437 31.8338-0.032851ZM33.8919 9.38875 33.5347 16.3796 31.2044 16.2606 31.5616 9.26969ZM33.3626 18.7541 32.7192 25.7244 30.3957 25.51 31.0391 18.5396ZM32.5047 28.0479 31.9709 33.8303 31.7779 35.0799 29.4719 34.7237 29.6595 33.5094 29.6508 33.5803 30.1812 27.8334ZM31.4217 37.3859 30.3531 44.3039 28.0471 43.9477 29.1157 37.0297ZM29.9969 46.6098 29.5847 49.2781 28.6373 53.5502 26.3593 53.0451 27.2985 48.8099 27.2845 48.8844 27.6909 46.2536ZM28.1322 55.8282 26.6167 62.6622 24.3387 62.157 25.8542 55.3231ZM26.0393 65.0106 24.0226 71.7138 21.7882 71.0416 23.8049 64.3383ZM23.3504 73.9482 21.7941 79.1212 21.213 80.6883 19.0253 79.877 19.5936 78.3444 19.5703 78.4139 21.116 73.276ZM20.4017 82.876 17.9679 89.4393 15.7801 88.628 18.214 82.0647ZM17.1566 91.627 16.2068 94.1881 14.4598 98.1586 12.3241 97.2188 14.0571 93.2801 14.0311 93.3444 14.9688 90.8157ZM13.5201 100.294 10.7009 106.701 8.56521 105.762 11.3844 99.3546ZM9.76122 108.837 9.30703 109.869 6.67279 115.178 4.58266 114.141 7.20494 108.856 7.18213 108.905 7.62549 107.898ZM5.63558 117.268 2.52396 123.538 0.433831 122.501 3.54545 116.231ZM6.94299 121.733-0.00352454 126.007-0.801229 117.89C-0.864249 117.249-0.395507 116.678 0.245736 116.615 0.886979 116.552 1.4579 117.021 1.52092 117.662L2.13605 123.921 0.363624 123.042 5.72029 119.746C6.26907 119.408 6.98766 119.579 7.3253 120.128 7.66294 120.677 7.49178 121.396 6.94299 121.733Z" transform="matrix(1.83697e-16 1 1 -1.83697e-16 393 1391)"/><path d="M137 1366.96 137 1324 305.712 1324 305.712 1486.7C305.712 1503.09 319.038 1516.38 335.476 1516.38L821.599 1516.38C838.037 1516.38 851.363 1503.09 851.363 1486.7L851.363 1324 933 1324 933 1343.56C933 1347.55 929.758 1350.78 925.759 1350.78L873.665 1350.78 873.665 1497.16C873.665 1521.8 853.63 1541.78 828.915 1541.78L455.38 1541.78 454.282 1542 252.545 1542C246.036 1542 240.759 1536.74 240.759 1530.25L240.759 1476.48C240.759 1469.98 246.036 1464.72 252.545 1464.72L283.41 1464.72 283.41 1375.79 145.861 1375.79C140.967 1375.79 137 1371.84 137 1366.96Z" stroke="#000000" stroke-width="4" stroke-miterlimit="8" fill="#F2F2F2" fill-rule="evenodd"/><path d="M341 1380 341 1293 816 1293 816 1380Z" stroke="#000000" stroke-width="4" stroke-miterlimit="8" fill="#F2F2F2" fill-rule="evenodd"/><path d="M1650 1278C1649.8 1245.06 1663.21 1197.2 1697.4 1182.09 1731.59 1166.98 1856.53 1144.94 1856 1195.07" stroke="#000000" stroke-width="4" stroke-miterlimit="8" fill="none" fill-rule="evenodd"/><path d="M1810 1278C1809.98 1248.81 1854.65 1243.99 1855 1209" stroke="#000000" stroke-width="4" stroke-miterlimit="8" fill="none" fill-rule="evenodd"/><path d="M1831 1197 1878.89 1197" stroke="#000000" stroke-width="4" stroke-linecap="round" stroke-miterlimit="8" fill="none" fill-rule="evenodd"/><path d="M1840 1210 1868.67 1210" stroke="#000000" stroke-width="4" stroke-linecap="round" stroke-miterlimit="8" fill="none" fill-rule="evenodd"/><text font-family="Open Sans,Open Sans_MSFontService,sans-serif" font-style="italic" font-weight="300" font-size="37" transform="translate(1888.04 1214)">V</text><path d="M1801 1282C1801.02 1276.71 1819.02 1276.64 1819 1281.95" stroke="#000000" stroke-width="4" stroke-miterlimit="8" fill="none" fill-rule="evenodd"/><path d="M1801 1282 1801 1287.01" stroke="#000000" stroke-width="4" stroke-miterlimit="8" fill="none" fill-rule="evenodd"/><path d="M1819 1282 1819 1287.08" stroke="#000000" stroke-width="4" stroke-miterlimit="8" fill="none" fill-rule="evenodd"/><path d="M1808 1279 1808 1287.21" stroke="#000000" stroke-width="4" stroke-miterlimit="8" fill="none" fill-rule="evenodd"/><path d="M1813 1279 1813 1287.21" stroke="#000000" stroke-width="4" stroke-miterlimit="8" fill="none" fill-rule="evenodd"/><path d="M1642 1282C1642.02 1276.71 1660.02 1276.64 1660 1281.95" stroke="#000000" stroke-width="4" stroke-miterlimit="8" fill="none" fill-rule="evenodd"/><path d="M1642 1282 1642 1287.01" stroke="#000000" stroke-width="4" stroke-miterlimit="8" fill="none" fill-rule="evenodd"/><path d="M1660 1282 1660 1287.08" stroke="#000000" stroke-width="4" stroke-miterlimit="8" fill="none" fill-rule="evenodd"/><path d="M1649 1279 1649 1287.21" stroke="#000000" stroke-width="4" stroke-miterlimit="8" fill="none" fill-rule="evenodd"/><path d="M1654 1279 1654 1287.21" stroke="#000000" stroke-width="4" stroke-miterlimit="8" fill="none" fill-rule="evenodd"/><rect x="851" y="1381" width="23" height="36" stroke="#000000" stroke-width="4" stroke-miterlimit="8" fill="#FFFFFF"/><path d="M862 1410C855.925 1410 851 1405.08 851 1399 851 1392.92 855.925 1388 862 1388 868.075 1388 873 1392.92 873 1399 873 1405.08 868.075 1410 862 1410Z" stroke="#000000" stroke-width="4" stroke-miterlimit="8" fill="#F2F2F2" fill-rule="evenodd"/><rect x="851" y="1376" width="23" height="4" stroke="#000000" stroke-width="4" stroke-miterlimit="8" fill="#F7AAA5"/><rect x="283" y="1381" width="22" height="36" stroke="#000000" stroke-width="4" stroke-miterlimit="8" fill="#FFFFFF"/><path d="M294 1410C287.925 1410 283 1405.08 283 1399 283 1392.92 287.925 1388 294 1388 300.075 1388 305 1392.92 305 1399 305 1405.08 300.075 1410 294 1410Z" stroke="#000000" stroke-width="4" stroke-miterlimit="8" fill="#F2F2F2" fill-rule="evenodd"/><rect x="283" y="1376" width="22" height="4" stroke="#000000" stroke-width="4" stroke-miterlimit="8" fill="#F7AAA5"/><path d="M76 1293 991.209 1293" stroke="#000000" stroke-width="4" stroke-linecap="round" stroke-linejoin="round" stroke-miterlimit="10" fill="none" fill-rule="evenodd"/><text font-family="Open Sans,Open Sans_MSFontService,sans-serif" font-weight="300" font-size="37" transform="translate(447.347 1349)">Inner electrode<tspan font-size="37" x="-127.233" y="230">Outer electrode</tspan><tspan font-size="37" x="425.729" y="-73">Outlet</tspan></text><path d="M939 1303.83 946 1303.83 946 1306.17 939 1306.17ZM948.333 1303.83 955.333 1303.83 955.333 1306.17 948.333 1306.17ZM957.667 1303.83 964.667 1303.83 964.667 1306.17 957.667 1306.17ZM967 1303.83 974 1303.83 974 1306.17 967 1306.17ZM976.333 1303.83 983.333 1303.83 983.333 1306.17 976.333 1306.17ZM985.667 1303.83 985.693 1303.83 985.693 1306.17 985.667 1306.17ZM974.116 1299.25 988.912 1305 974.116 1310.75C973.515 1310.99 972.839 1310.69 972.606 1310.09 972.372 1309.49 972.67 1308.81 973.27 1308.58L985.27 1303.91 985.27 1306.09 973.27 1301.42C972.67 1301.19 972.372 1300.51 972.606 1299.91 972.839 1299.31 973.515 1299.01 974.116 1299.25Z"/><path d="M244.201 1362.33C238.495 1400.88 228.97 1406.57 222.165 1375.5" stroke="#000000" stroke-width="3.33333" stroke-miterlimit="8" fill="none" fill-rule="evenodd"/><path d="M250.167 1292.77 249.979 1309.23 249.415 1325.28 248.349 1340.45 247.419 1349.96 244.101 1349.63 245.029 1340.15 245.025 1340.2 246.087 1325.07 246.084 1325.13 246.647 1309.13 246.646 1309.17 246.833 1292.73ZM254.513 1336.19 245.313 1354.37 239.809 1334.75C239.561 1333.86 240.078 1332.94 240.964 1332.7 241.85 1332.45 242.77 1332.96 243.019 1333.85L247.365 1349.35 244.273 1349.04 251.538 1334.68C251.954 1333.86 252.957 1333.53 253.778 1333.95 254.599 1334.36 254.928 1335.37 254.513 1336.19Z"/><path d="M81 1303.83 88 1303.83 88 1306.17 81 1306.17ZM90.3333 1303.83 97.3333 1303.83 97.3333 1306.17 90.3333 1306.17ZM99.6667 1303.83 106.667 1303.83 106.667 1306.17 99.6667 1306.17ZM109 1303.83 116 1303.83 116 1306.17 109 1306.17ZM118.333 1303.83 125.333 1303.83 125.333 1306.17 118.333 1306.17ZM127.667 1303.83 127.693 1303.83 127.693 1306.17 127.667 1306.17ZM116.116 1299.25 130.912 1305 116.116 1310.75C115.515 1310.99 114.839 1310.69 114.606 1310.09 114.372 1309.49 114.67 1308.81 115.27 1308.58L127.27 1303.91 127.27 1306.09 115.27 1301.42C114.67 1301.19 114.372 1300.51 114.606 1299.91 114.839 1299.31 115.515 1299.01 116.116 1299.25Z"/><text font-family="Open Sans,Open Sans_MSFontService,sans-serif" font-weight="300" font-size="37" transform="translate(144.934 1585)">ω<tspan font-size="25" x="27.3333" y="8">2</tspan></text><path d="M0 0 12.8358 0.000104987" stroke="#000000" stroke-width="3.33333" stroke-linecap="round" stroke-miterlimit="8" fill="none" fill-rule="evenodd" transform="matrix(-1 0 0 1 209.336 1576.5)"/><path d="M0 0 45.2851 21.3091" stroke="#000000" stroke-width="3.33333" stroke-linecap="round" stroke-miterlimit="8" fill="none" fill-rule="evenodd" transform="matrix(1 0 0 -1 209.5 1575.81)"/><text font-family="Open Sans,Open Sans_MSFontService,sans-serif" font-weight="300" font-size="37" transform="translate(62.414 1411)">ω<tspan font-size="25" x="27.3333" y="8">1</tspan></text><path d="M0 0 12.8358 0.000104987" stroke="#000000" stroke-width="3.33333" stroke-linecap="round" stroke-miterlimit="8" fill="none" fill-rule="evenodd" transform="matrix(-1 0 0 1 126.336 1401.5)"/><path d="M0 0 96.3422 18.6027" stroke="#000000" stroke-width="3.33333" stroke-linecap="round" stroke-miterlimit="8" fill="none" fill-rule="evenodd" transform="matrix(1 0 0 -1 127.5 1402.1)"/><text font-family="Open Sans,Open Sans_MSFontService,sans-serif" font-weight="300" font-size="37" transform="translate(10.5738 1487)">Bearing</text><path d="M0 0 12.8358 0.000104987" stroke="#000000" stroke-width="3.33333" stroke-linecap="round" stroke-miterlimit="8" fill="none" fill-rule="evenodd" transform="matrix(-1 0 0 1 163.336 1479.5)"/><path d="M0.791086-1.46696 112.648 58.8542C113.458 59.2911 113.761 60.3021 113.324 61.1122 112.887 61.9224 111.876 62.225 111.066 61.7881L-0.791086 1.46696C-1.60126 1.03005-1.90386 0.0190918-1.46696-0.791086-1.03005-1.60126-0.0190918-1.90386 0.791086-1.46696ZM102.692 46.9867 115.905 62.5039 95.6802 59.9898C94.7668 59.8762 94.1183 59.0437 94.2319 58.1303 94.3454 57.2168 95.178 56.5684 96.0914 56.6819L112.063 58.6673 110.588 61.4018 100.154 49.1476C99.5577 48.4468 99.6421 47.3949 100.343 46.7982 101.044 46.2014 102.096 46.2858 102.692 46.9867Z" transform="matrix(1 0 0 -1 163.5 1479)"/><path d="M381.034 1473.83 388.031 1474.04 387.964 1476.37 380.966 1476.17ZM390.398 1474.12 397.386 1474.54 397.247 1476.87 390.259 1476.45ZM399.755 1474.74 406.721 1475.43 406.492 1477.76 399.526 1477.07ZM409.043 1475.66 414.028 1476.16 416.068 1476.49 415.686 1478.8 413.684 1478.46 413.76 1478.47 408.814 1477.98ZM418.37 1476.88 425.275 1478.02 424.893 1480.32 417.988 1479.18ZM427.577 1478.4 429.173 1478.67 434.487 1479.97 433.93 1482.24 428.659 1480.95 428.746 1480.96 427.195 1480.71ZM436.753 1480.53 443.55 1482.2 442.994 1484.47 436.196 1482.8ZM445.855 1482.93 452.513 1485.09 451.792 1487.31 445.135 1485.15ZM454.732 1485.82 458.272 1486.96 461.388 1488.21 460.521 1490.38 457.442 1489.15 457.515 1489.17 454.012 1488.03ZM463.554 1489.08 470.054 1491.68 469.187 1493.84 462.688 1491.24ZM472.22 1492.54 473.032 1492.87 478.626 1495.55 477.617 1497.65 472.058 1494.99 472.129 1495.02 471.354 1494.71ZM480.73 1496.56 487.041 1499.59 486.033 1501.69 479.721 1498.66ZM489.17 1500.65 495.361 1503.91 494.272 1505.98 488.081 1502.71ZM497.433 1505.03 502.645 1507.92 501.516 1509.96 496.304 1507.08ZM500.047 1502.87 504.007 1510 495.863 1510.44C495.219 1510.47 494.67 1509.98 494.635 1509.34 494.601 1508.69 495.095 1508.14 495.738 1508.11L502.018 1507.77 501.061 1509.51 498.007 1504.01C497.694 1503.44 497.897 1502.73 498.46 1502.42 499.023 1502.11 499.734 1502.31 500.047 1502.87Z"/><path d="M190 1307C190 1302.03 194.029 1298 199 1298 203.971 1298 208 1302.03 208 1307 208 1311.97 203.971 1316 199 1316 194.029 1316 190 1311.97 190 1307Z" stroke="#000000" stroke-width="2.33333" stroke-miterlimit="8" fill="#FFBE0B" fill-rule="evenodd"/><path d="M317 1431.5C317 1426.81 320.806 1423 325.5 1423 330.194 1423 334 1426.81 334 1431.5 334 1436.19 330.194 1440 325.5 1440 320.806 1440 317 1436.19 317 1431.5Z" stroke="#000000" stroke-width="2.33333" stroke-miterlimit="8" fill="#FFBE0B" fill-rule="evenodd"/><path d="M580 1432.5C580 1430.57 581.567 1429 583.5 1429 585.433 1429 587 1430.57 587 1432.5 587 1434.43 585.433 1436 583.5 1436 581.567 1436 580 1434.43 580 1432.5Z" stroke="#000000" stroke-width="2.33333" stroke-miterlimit="8" fill="#FFBE0B" fill-rule="evenodd"/><path d="M587 1432.5C587 1428.91 590.134 1426 594 1426 597.866 1426 601 1428.91 601 1432.5 601 1436.09 597.866 1439 594 1439 590.134 1439 587 1436.09 587 1432.5Z" stroke="#000000" stroke-width="2.33333" stroke-miterlimit="8" fill="#FFBE0B" fill-rule="evenodd"/><path d="M316.275 1332.02C315.359 1329.71 316.496 1327.08 318.814 1326.17 321.131 1325.25 323.753 1326.39 324.668 1328.71 325.584 1331.02 324.448 1333.65 322.13 1334.56 319.812 1335.48 317.191 1334.34 316.275 1332.02Z" stroke="#000000" stroke-width="2.33333" stroke-miterlimit="8" fill="#FFBE0B" fill-rule="evenodd"/><path d="M317.97 1323.89C317.512 1322.74 318.08 1321.42 319.239 1320.97 320.398 1320.51 321.709 1321.08 322.166 1322.24 322.624 1323.39 322.056 1324.71 320.897 1325.16 319.738 1325.62 318.428 1325.05 317.97 1323.89Z" stroke="#000000" stroke-width="2.33333" stroke-miterlimit="8" fill="#FFBE0B" fill-rule="evenodd"/><path d="M324.653 1336.33C323.738 1334.02 324.874 1331.39 327.192 1330.48 329.509 1329.56 332.131 1330.7 333.047 1333.02 333.962 1335.34 332.826 1337.96 330.508 1338.87 328.191 1339.79 325.569 1338.65 324.653 1336.33Z" stroke="#000000" stroke-width="2.33333" stroke-miterlimit="8" fill="#FFBE0B" fill-rule="evenodd"/><path d="M328.749 1342.61C328.292 1341.45 328.86 1340.14 330.019 1339.68 331.178 1339.22 332.488 1339.79 332.946 1340.95 333.404 1342.11 332.836 1343.42 331.677 1343.88 330.518 1344.34 329.207 1343.77 328.749 1342.61Z" stroke="#000000" stroke-width="2.33333" stroke-miterlimit="8" fill="#FFBE0B" fill-rule="evenodd"/><path d="M223 1301C223 1299.9 224.119 1299 225.5 1299 226.881 1299 228 1299.9 228 1301 228 1302.1 226.881 1303 225.5 1303 224.119 1303 223 1302.1 223 1301Z" stroke="#000000" stroke-width="2.33333" stroke-miterlimit="8" fill="#FFBE0B" fill-rule="evenodd"/><path d="M226 1305C226 1303.34 227.567 1302 229.5 1302 231.433 1302 233 1303.34 233 1305 233 1306.66 231.433 1308 229.5 1308 227.567 1308 226 1306.66 226 1305Z" stroke="#000000" stroke-width="2.33333" stroke-miterlimit="8" fill="#FFBE0B" fill-rule="evenodd"/><path d="M232 1307.5C232 1306.12 233.119 1305 234.5 1305 235.881 1305 237 1306.12 237 1307.5 237 1308.88 235.881 1310 234.5 1310 233.119 1310 232 1308.88 232 1307.5Z" stroke="#000000" stroke-width="2.33333" stroke-miterlimit="8" fill="#FFBE0B" fill-rule="evenodd"/><path d="M232 1313C232 1311.34 233.343 1310 235 1310 236.657 1310 238 1311.34 238 1313 238 1314.66 236.657 1316 235 1316 233.343 1316 232 1314.66 232 1313Z" stroke="#000000" stroke-width="2.33333" stroke-miterlimit="8" fill="#FFBE0B" fill-rule="evenodd"/><path d="M228 1315.5C228 1314.12 228.895 1313 230 1313 231.105 1313 232 1314.12 232 1315.5 232 1316.88 231.105 1318 230 1318 228.895 1318 228 1316.88 228 1315.5Z" stroke="#000000" stroke-width="2.33333" stroke-miterlimit="8" fill="#FFBE0B" fill-rule="evenodd"/><path d="M555.533 1416.73C556.414 1417.61 556.414 1419.04 555.533 1419.92 554.652 1420.81 553.223 1420.81 552.342 1419.92 551.461 1419.04 551.461 1417.61 552.342 1416.73 553.223 1415.85 554.652 1415.85 555.533 1416.73Z" stroke="#000000" stroke-width="2.33333" stroke-miterlimit="8" fill="#FFBE0B" fill-rule="evenodd"/><path d="M554.741 1410.3C555.997 1411.55 555.997 1413.59 554.741 1414.84 553.486 1416.1 551.451 1416.1 550.195 1414.84 548.94 1413.59 548.94 1411.55 550.195 1410.3 551.451 1409.04 553.486 1409.04 554.741 1410.3Z" stroke="#000000" stroke-width="2.33333" stroke-miterlimit="8" fill="#FFBE0B" fill-rule="evenodd"/><path d="M548.754 1412.84C549.635 1413.72 549.635 1415.15 548.754 1416.03 547.873 1416.91 546.445 1416.91 545.564 1416.03 544.683 1415.15 544.683 1413.72 545.564 1412.84 546.445 1411.96 547.873 1411.96 548.754 1412.84Z" stroke="#000000" stroke-width="2.33333" stroke-miterlimit="8" fill="#FFBE0B" fill-rule="evenodd"/><path d="M544.803 1408.6C545.955 1409.75 545.955 1411.62 544.803 1412.77 543.651 1413.92 541.783 1413.92 540.631 1412.77 539.479 1411.62 539.479 1409.75 540.631 1408.6 541.783 1407.45 543.651 1407.45 544.803 1408.6Z" stroke="#000000" stroke-width="2.33333" stroke-miterlimit="8" fill="#FFBE0B" fill-rule="evenodd"/><path d="M546.158 1403.9C547.039 1404.78 547.039 1406.21 546.158 1407.09 545.277 1407.97 543.849 1407.97 542.968 1407.09 542.087 1406.21 542.087 1404.78 542.968 1403.9 543.849 1403.02 545.277 1403.02 546.158 1403.9Z" stroke="#000000" stroke-width="2.33333" stroke-miterlimit="8" fill="#FFBE0B" fill-rule="evenodd"/><path d="M325.994 1405.5C323.708 1406.5 321.05 1405.45 320.056 1403.17 319.063 1400.88 320.11 1398.22 322.395 1397.23 324.681 1396.23 327.339 1397.28 328.332 1399.57 329.326 1401.85 328.279 1404.51 325.994 1405.5Z" stroke="#000000" stroke-width="2.33333" stroke-miterlimit="8" fill="#FFBE0B" fill-rule="evenodd"/><path d="M317.813 1404.09C316.67 1404.58 315.341 1404.06 314.844 1402.92 314.347 1401.77 314.871 1400.44 316.013 1399.95 317.156 1399.45 318.485 1399.97 318.982 1401.12 319.479 1402.26 318.955 1403.59 317.813 1404.09Z" stroke="#000000" stroke-width="2.33333" stroke-miterlimit="8" fill="#FFBE0B" fill-rule="evenodd"/><path d="M330.019 1396.98C327.733 1397.98 325.075 1396.93 324.081 1394.65 323.088 1392.36 324.135 1389.7 326.42 1388.71 328.706 1387.71 331.364 1388.76 332.357 1391.05 333.351 1393.33 332.304 1395.99 330.019 1396.98Z" stroke="#000000" stroke-width="2.33333" stroke-miterlimit="8" fill="#FFBE0B" fill-rule="evenodd"/><path d="M336.151 1392.68C335.008 1393.18 333.679 1392.65 333.182 1391.51 332.685 1390.37 333.209 1389.04 334.351 1388.54 335.494 1388.04 336.823 1388.57 337.32 1389.71 337.817 1390.85 337.293 1392.18 336.151 1392.68Z" stroke="#000000" stroke-width="2.33333" stroke-miterlimit="8" fill="#FFBE0B" fill-rule="evenodd"/><path d="M156.83 1312.06C155.597 1311.88 154.749 1310.73 154.934 1309.5 155.119 1308.26 156.268 1307.42 157.5 1307.6 158.733 1307.79 159.581 1308.94 159.396 1310.17 159.211 1311.4 158.062 1312.25 156.83 1312.06Z" stroke="#000000" stroke-width="2.33333" stroke-miterlimit="8" fill="#FFBE0B" fill-rule="evenodd"/><path d="M161.289 1316.77C159.534 1316.5 158.325 1314.87 158.589 1313.11 158.852 1311.36 160.49 1310.15 162.245 1310.41 164.001 1310.67 165.21 1312.31 164.946 1314.07 164.682 1315.82 163.045 1317.03 161.289 1316.77Z" stroke="#000000" stroke-width="2.33333" stroke-miterlimit="8" fill="#FFBE0B" fill-rule="evenodd"/><path d="M164.596 1311.17C163.363 1310.98 162.515 1309.83 162.7 1308.6 162.885 1307.37 164.034 1306.52 165.266 1306.71 166.499 1306.89 167.347 1308.04 167.162 1309.27 166.977 1310.5 165.828 1311.35 164.596 1311.17Z" stroke="#000000" stroke-width="2.33333" stroke-miterlimit="8" fill="#FFBE0B" fill-rule="evenodd"/><path d="M170.293 1312.23C168.682 1311.99 167.573 1310.49 167.815 1308.88 168.057 1307.26 169.559 1306.15 171.17 1306.4 172.781 1306.64 173.891 1308.14 173.649 1309.75 173.407 1311.36 171.904 1312.47 170.293 1312.23Z" stroke="#000000" stroke-width="2.33333" stroke-miterlimit="8" fill="#FFBE0B" fill-rule="evenodd"/><path d="M169.957 1306.21C168.724 1306.03 167.876 1304.88 168.061 1303.65 168.246 1302.41 169.395 1301.56 170.627 1301.75 171.86 1301.93 172.708 1303.08 172.523 1304.32 172.338 1305.55 171.189 1306.4 169.957 1306.21Z" stroke="#000000" stroke-width="2.33333" stroke-miterlimit="8" fill="#FFBE0B" fill-rule="evenodd"/><path d="M369 1474C369 1470.13 372.134 1467 376 1467 379.866 1467 383 1470.13 383 1474 383 1477.87 379.866 1481 376 1481 372.134 1481 369 1477.87 369 1474Z" stroke="#000000" stroke-width="2.33333" stroke-miterlimit="8" fill="#FFBE0B" fill-rule="evenodd"/><path d="M317 1362.5C317 1357.81 320.806 1354 325.5 1354 330.194 1354 334 1357.81 334 1362.5 334 1367.19 330.194 1371 325.5 1371 320.806 1371 317 1367.19 317 1362.5Z" stroke="#000000" stroke-width="2.33333" stroke-miterlimit="8" fill="#FFBE0B" fill-rule="evenodd"/><path d="M329 1486C329 1482.69 331.686 1480 335 1480 338.314 1480 341 1482.69 341 1486 341 1489.31 338.314 1492 335 1492 331.686 1492 329 1489.31 329 1486Z" stroke="#000000" stroke-width="2.33333" stroke-miterlimit="8" fill="#FFBE0B" fill-rule="evenodd"/><path d="M394.212 1455.35C391.742 1455.01 390.009 1452.74 390.341 1450.27 390.673 1447.8 392.944 1446.07 395.414 1446.4 397.884 1446.73 399.617 1449.01 399.285 1451.47 398.953 1453.94 396.681 1455.68 394.212 1455.35Z" stroke="#000000" stroke-width="2.33333" stroke-miterlimit="8" fill="#FFBE0B" fill-rule="evenodd"/><path d="M387.944 1449.9C386.709 1449.73 385.843 1448.6 386.009 1447.36 386.175 1446.13 387.311 1445.26 388.546 1445.43 389.781 1445.59 390.647 1446.73 390.481 1447.96 390.315 1449.2 389.179 1450.06 387.944 1449.9Z" stroke="#000000" stroke-width="2.33333" stroke-miterlimit="8" fill="#FFBE0B" fill-rule="evenodd"/><path d="M402.064 1450.14C399.594 1449.81 397.861 1447.53 398.193 1445.06 398.525 1442.59 400.796 1440.86 403.266 1441.19 405.736 1441.53 407.469 1443.8 407.137 1446.27 406.805 1448.74 404.534 1450.47 402.064 1450.14Z" stroke="#000000" stroke-width="2.33333" stroke-miterlimit="8" fill="#FFBE0B" fill-rule="evenodd"/><path d="M409.539 1449.63C408.304 1449.46 407.438 1448.32 407.604 1447.09 407.77 1445.85 408.905 1444.99 410.14 1445.15 411.375 1445.32 412.242 1446.46 412.076 1447.69 411.91 1448.93 410.774 1449.79 409.539 1449.63Z" stroke="#000000" stroke-width="2.33333" stroke-miterlimit="8" fill="#FFBE0B" fill-rule="evenodd"/><path d="M466 1481C466 1477.69 468.686 1475 472 1475 475.314 1475 478 1477.69 478 1481 478 1484.31 475.314 1487 472 1487 468.686 1487 466 1484.31 466 1481Z" stroke="#000000" stroke-width="2.33333" stroke-miterlimit="8" fill="#FFBE0B" fill-rule="evenodd"/><path d="M377.408 1426.98C376.267 1426.81 375.482 1425.75 375.653 1424.61 375.825 1423.47 376.888 1422.68 378.029 1422.85 379.169 1423.02 379.955 1424.09 379.783 1425.23 379.612 1426.37 378.548 1427.15 377.408 1426.98Z" stroke="#000000" stroke-width="2.33333" stroke-miterlimit="8" fill="#FFBE0B" fill-rule="evenodd"/><path d="M384.596 1426.15C383.455 1425.98 382.67 1424.92 382.841 1423.78 383.013 1422.64 384.076 1421.85 385.217 1422.02 386.357 1422.2 387.143 1423.26 386.971 1424.4 386.8 1425.54 385.736 1426.33 384.596 1426.15Z" stroke="#000000" stroke-width="2.33333" stroke-miterlimit="8" fill="#FFBE0B" fill-rule="evenodd"/><path d="M389.248 1426.69C388.107 1426.52 387.322 1425.45 387.493 1424.31 387.665 1423.17 388.728 1422.39 389.869 1422.56 391.009 1422.73 391.795 1423.79 391.623 1424.93 391.452 1426.07 390.388 1426.86 389.248 1426.69Z" stroke="#000000" stroke-width="2.33333" stroke-miterlimit="8" fill="#FFBE0B" fill-rule="evenodd"/><path d="M381.493 1430.03C380.352 1429.86 379.567 1428.8 379.738 1427.66 379.91 1426.52 380.973 1425.73 382.114 1425.9 383.254 1426.08 384.04 1427.14 383.868 1428.28 383.697 1429.42 382.633 1430.21 381.493 1430.03Z" stroke="#000000" stroke-width="2.33333" stroke-miterlimit="8" fill="#FFBE0B" fill-rule="evenodd"/><path d="M383.82 1434.22C382.68 1434.05 381.894 1432.99 382.065 1431.85 382.237 1430.71 383.3 1429.92 384.441 1430.09 385.581 1430.26 386.367 1431.33 386.195 1432.47 386.024 1433.61 384.961 1434.39 383.82 1434.22Z" stroke="#000000" stroke-width="2.33333" stroke-miterlimit="8" fill="#FFBE0B" fill-rule="evenodd"/><path d="M390.954 1422.81C389.814 1422.64 389.028 1421.57 389.2 1420.43 389.371 1419.29 390.435 1418.51 391.575 1418.68 392.716 1418.85 393.501 1419.91 393.33 1421.05 393.159 1422.19 392.095 1422.98 390.954 1422.81Z" stroke="#000000" stroke-width="2.33333" stroke-miterlimit="8" fill="#FFBE0B" fill-rule="evenodd"/><path d="M348.716 1413.2C349.92 1413.52 350.635 1414.76 350.313 1415.96 349.991 1417.17 348.754 1417.88 347.55 1417.56 346.347 1417.24 345.632 1416 345.953 1414.8 346.275 1413.59 347.512 1412.88 348.716 1413.2Z" stroke="#000000" stroke-width="2.33333" stroke-miterlimit="8" fill="#FFBE0B" fill-rule="evenodd"/><path d="M361.303 1419.38C363.018 1419.84 364.037 1421.6 363.578 1423.31 363.12 1425.03 361.357 1426.05 359.642 1425.59 357.927 1425.13 356.909 1423.37 357.367 1421.65 357.826 1419.94 359.588 1418.92 361.303 1419.38Z" stroke="#000000" stroke-width="2.33333" stroke-miterlimit="8" fill="#FFBE0B" fill-rule="evenodd"/><path d="M357.391 1424.57C358.595 1424.9 359.31 1426.13 358.988 1427.34 358.667 1428.54 357.43 1429.26 356.226 1428.93 355.022 1428.61 354.307 1427.38 354.629 1426.17 354.951 1424.97 356.188 1424.25 357.391 1424.57Z" stroke="#000000" stroke-width="2.33333" stroke-miterlimit="8" fill="#FFBE0B" fill-rule="evenodd"/><path d="M351.848 1422.88C353.422 1423.3 354.357 1424.92 353.936 1426.49 353.515 1428.07 351.898 1429 350.324 1428.58 348.751 1428.16 347.816 1426.54 348.237 1424.97 348.657 1423.4 350.274 1422.46 351.848 1422.88Z" stroke="#000000" stroke-width="2.33333" stroke-miterlimit="8" fill="#FFBE0B" fill-rule="evenodd"/><path d="M350.669 1418.13C351.872 1418.45 352.587 1419.69 352.266 1420.89 351.944 1422.1 350.707 1422.81 349.503 1422.49 348.299 1422.17 347.584 1420.93 347.906 1419.73 348.228 1418.53 349.465 1417.81 350.669 1418.13Z" stroke="#000000" stroke-width="2.33333" stroke-miterlimit="8" fill="#FFBE0B" fill-rule="evenodd"/><path d="M265.683 1298.66C267.457 1299.24 268.419 1301.16 267.832 1302.93 267.244 1304.71 265.329 1305.67 263.555 1305.08 261.781 1304.49 260.819 1302.58 261.406 1300.81 261.994 1299.03 263.908 1298.07 265.683 1298.66Z" stroke="#000000" stroke-width="2.33333" stroke-miterlimit="8" fill="#FFBE0B" fill-rule="evenodd"/><path d="M263.062 1305.42C266.512 1306.57 268.383 1310.29 267.24 1313.74 266.098 1317.19 262.375 1319.06 258.925 1317.92 255.475 1316.77 253.604 1313.05 254.747 1309.6 255.889 1306.15 259.612 1304.28 263.062 1305.42Z" stroke="#000000" stroke-width="2.33333" stroke-miterlimit="8" fill="#FFBE0B" fill-rule="evenodd"/><path d="M541.4 1453.05C543.175 1453.63 544.137 1455.55 543.549 1457.32 542.962 1459.1 541.047 1460.06 539.273 1459.47 537.499 1458.88 536.537 1456.97 537.124 1455.2 537.712 1453.42 539.626 1452.46 541.4 1453.05Z" stroke="#000000" stroke-width="2.33333" stroke-miterlimit="8" fill="#FFBE0B" fill-rule="evenodd"/><path d="M550.846 1454.74C553.739 1455.7 555.308 1458.82 554.35 1461.71 553.392 1464.61 550.27 1466.18 547.376 1465.22 544.483 1464.26 542.914 1461.14 543.872 1458.25 544.83 1455.35 547.952 1453.78 550.846 1454.74Z" stroke="#000000" stroke-width="2.33333" stroke-miterlimit="8" fill="#FFBE0B" fill-rule="evenodd"/><path d="M670.203 1493.6C671.438 1492.2 673.576 1492.06 674.979 1493.3 676.382 1494.53 676.518 1496.67 675.283 1498.07 674.048 1499.48 671.91 1499.61 670.507 1498.38 669.104 1497.14 668.968 1495 670.203 1493.6Z" stroke="#000000" stroke-width="2.33333" stroke-miterlimit="8" fill="#FFBE0B" fill-rule="evenodd"/><path d="M675.459 1485.57C677.473 1483.29 680.96 1483.06 683.248 1485.08 685.535 1487.09 685.757 1490.58 683.743 1492.87 681.73 1495.15 678.243 1495.38 675.955 1493.36 673.667 1491.35 673.445 1487.86 675.459 1485.57Z" stroke="#000000" stroke-width="2.33333" stroke-miterlimit="8" fill="#FFBE0B" fill-rule="evenodd"/><path d="M493.388 1452.4C494.623 1451 496.761 1450.86 498.164 1452.1 499.567 1453.33 499.703 1455.47 498.468 1456.87 497.233 1458.28 495.095 1458.41 493.692 1457.18 492.289 1455.94 492.153 1453.8 493.388 1452.4Z" stroke="#000000" stroke-width="2.33333" stroke-miterlimit="8" fill="#FFBE0B" fill-rule="evenodd"/><path d="M498.118 1444.94C499.976 1442.83 503.193 1442.62 505.303 1444.48 507.413 1446.34 507.618 1449.55 505.76 1451.66 503.902 1453.77 500.686 1453.98 498.576 1452.12 496.465 1450.26 496.261 1447.05 498.118 1444.94Z" stroke="#000000" stroke-width="2.33333" stroke-miterlimit="8" fill="#FFBE0B" fill-rule="evenodd"/><path d="M498.359 1457.71C499.237 1456.71 500.756 1456.61 501.753 1457.49 502.749 1458.37 502.846 1459.89 501.969 1460.89 501.091 1461.88 499.572 1461.98 498.576 1461.1 497.579 1460.22 497.482 1458.7 498.359 1457.71Z" stroke="#000000" stroke-width="2.33333" stroke-miterlimit="8" fill="#FFBE0B" fill-rule="evenodd"/><path d="M342.174 1460.03C343.409 1458.63 345.547 1458.49 346.95 1459.72 348.353 1460.96 348.489 1463.1 347.254 1464.5 346.019 1465.9 343.881 1466.04 342.478 1464.81 341.075 1463.57 340.939 1461.43 342.174 1460.03Z" stroke="#000000" stroke-width="2.33333" stroke-miterlimit="8" fill="#FFBE0B" fill-rule="evenodd"/><path d="M346.904 1452.57C348.762 1450.46 351.979 1450.25 354.089 1452.11 356.2 1453.97 356.404 1457.18 354.547 1459.29 352.689 1461.4 349.472 1461.61 347.362 1459.75 345.252 1457.89 345.047 1454.68 346.904 1452.57Z" stroke="#000000" stroke-width="2.33333" stroke-miterlimit="8" fill="#FFBE0B" fill-rule="evenodd"/><path d="M347.471 1446.82C348.348 1445.82 349.867 1445.72 350.864 1446.6 351.861 1447.48 351.957 1449 351.08 1449.99 350.202 1450.99 348.683 1451.09 347.687 1450.21 346.69 1449.33 346.593 1447.81 347.471 1446.82Z" stroke="#000000" stroke-width="2.33333" stroke-miterlimit="8" fill="#FFBE0B" fill-rule="evenodd"/><path d="M463.775 1431.26C465.01 1429.86 467.148 1429.72 468.551 1430.96 469.954 1432.19 470.09 1434.33 468.855 1435.74 467.62 1437.14 465.482 1437.27 464.079 1436.04 462.676 1434.8 462.54 1432.67 463.775 1431.26Z" stroke="#000000" stroke-width="2.33333" stroke-miterlimit="8" fill="#FFBE0B" fill-rule="evenodd"/><path d="M468.505 1423.8C470.363 1421.69 473.58 1421.48 475.69 1423.34 477.8 1425.2 478.005 1428.42 476.147 1430.53 474.29 1432.64 471.073 1432.84 468.963 1430.98 466.852 1429.13 466.648 1425.91 468.505 1423.8Z" stroke="#000000" stroke-width="2.33333" stroke-miterlimit="8" fill="#FFBE0B" fill-rule="evenodd"/><path d="M477.944 1428.66C478.821 1427.66 480.341 1427.56 481.337 1428.44 482.334 1429.32 482.431 1430.84 481.553 1431.83 480.676 1432.83 479.157 1432.93 478.16 1432.05 477.163 1431.17 477.067 1429.65 477.944 1428.66Z" stroke="#000000" stroke-width="2.33333" stroke-miterlimit="8" fill="#FFBE0B" fill-rule="evenodd"/><path d="M302.032 1302.53C302.797 1304.24 302.035 1306.24 300.33 1307.01 298.625 1307.77 296.622 1307.01 295.857 1305.3 295.092 1303.6 295.854 1301.6 297.56 1300.83 299.265 1300.07 301.267 1300.83 302.032 1302.53Z" stroke="#000000" stroke-width="2.33333" stroke-miterlimit="8" fill="#FFBE0B" fill-rule="evenodd"/><path d="M306.865 1309.93C308.016 1312.5 306.869 1315.51 304.304 1316.66 301.739 1317.81 298.727 1316.66 297.576 1314.1 296.425 1311.53 297.571 1308.52 300.136 1307.37 302.702 1306.22 305.714 1307.37 306.865 1309.93Z" stroke="#000000" stroke-width="2.33333" stroke-miterlimit="8" fill="#FFBE0B" fill-rule="evenodd"/><path d="M298.533 1316.51C299.076 1317.72 298.535 1319.14 297.323 1319.69 296.112 1320.23 294.689 1319.69 294.146 1318.48 293.602 1317.27 294.144 1315.84 295.355 1315.3 296.567 1314.76 297.989 1315.3 298.533 1316.51Z" stroke="#000000" stroke-width="2.33333" stroke-miterlimit="8" fill="#FFBE0B" fill-rule="evenodd"/><path d="M609.713 1494.91C610.708 1495.24 611.249 1496.32 610.919 1497.31 610.589 1498.31 609.514 1498.85 608.519 1498.52 607.523 1498.19 606.983 1497.11 607.313 1496.12 607.642 1495.12 608.717 1494.58 609.713 1494.91Z" stroke="#000000" stroke-width="2.33333" stroke-miterlimit="8" fill="#FFBE0B" fill-rule="evenodd"/><path d="M619.206 1492.55C622.293 1493.57 623.967 1496.91 622.945 1499.99 621.922 1503.08 618.591 1504.75 615.504 1503.73 612.416 1502.71 610.742 1499.38 611.765 1496.29 612.787 1493.2 616.118 1491.53 619.206 1492.55Z" stroke="#000000" stroke-width="2.33333" stroke-miterlimit="8" fill="#FFBE0B" fill-rule="evenodd"/><path d="M737.194 1481.67C738.429 1480.27 740.567 1480.13 741.97 1481.37 743.373 1482.6 743.509 1484.74 742.274 1486.14 741.039 1487.54 738.901 1487.68 737.498 1486.45 736.095 1485.21 735.959 1483.07 737.194 1481.67Z" stroke="#000000" stroke-width="2.33333" stroke-miterlimit="8" fill="#FFBE0B" fill-rule="evenodd"/><path d="M743.164 1485.78C745.178 1483.49 748.665 1483.27 750.952 1485.28 753.24 1487.3 753.462 1490.78 751.448 1493.07 749.434 1495.36 745.947 1495.58 743.66 1493.57 741.372 1491.55 741.15 1488.06 743.164 1485.78Z" stroke="#000000" stroke-width="2.33333" stroke-miterlimit="8" fill="#FFBE0B" fill-rule="evenodd"/><path d="M697.109 1427.8C698.344 1426.4 700.482 1426.26 701.885 1427.5 703.288 1428.73 703.424 1430.87 702.189 1432.27 700.954 1433.68 698.816 1433.81 697.413 1432.58 696.01 1431.34 695.874 1429.2 697.109 1427.8Z" stroke="#000000" stroke-width="2.33333" stroke-miterlimit="8" fill="#FFBE0B" fill-rule="evenodd"/><path d="M684.401 1420.03C686.258 1417.92 689.475 1417.72 691.585 1419.57 693.696 1421.43 693.9 1424.65 692.043 1426.76 690.185 1428.87 686.968 1429.07 684.858 1427.22 682.748 1425.36 682.543 1422.14 684.401 1420.03Z" stroke="#000000" stroke-width="2.33333" stroke-miterlimit="8" fill="#FFBE0B" fill-rule="evenodd"/><path d="M691.679 1427.68C692.556 1426.68 694.075 1426.58 695.072 1427.46 696.069 1428.34 696.165 1429.86 695.288 1430.85 694.411 1431.85 692.891 1431.95 691.895 1431.07 690.898 1430.19 690.801 1428.67 691.679 1427.68Z" stroke="#000000" stroke-width="2.33333" stroke-miterlimit="8" fill="#FFBE0B" fill-rule="evenodd"/><path d="M717.363 1439.51C718.598 1438.11 720.737 1437.97 722.14 1439.21 723.542 1440.44 723.679 1442.58 722.444 1443.98 721.209 1445.39 719.07 1445.52 717.668 1444.29 716.265 1443.05 716.129 1440.91 717.363 1439.51Z" stroke="#000000" stroke-width="2.33333" stroke-miterlimit="8" fill="#FFBE0B" fill-rule="evenodd"/><path d="M717.197 1429.9C719.055 1427.79 722.271 1427.59 724.382 1429.45 726.492 1431.31 726.697 1434.52 724.839 1436.63 722.982 1438.74 719.765 1438.95 717.655 1437.09 715.544 1435.23 715.339 1432.02 717.197 1429.9Z" stroke="#000000" stroke-width="2.33333" stroke-miterlimit="8" fill="#FFBE0B" fill-rule="evenodd"/><path d="M725.239 1426.54C726.116 1425.54 727.635 1425.44 728.632 1426.32 729.629 1427.2 729.725 1428.72 728.848 1429.71 727.971 1430.71 726.452 1430.81 725.455 1429.93 724.458 1429.05 724.362 1427.53 725.239 1426.54Z" stroke="#000000" stroke-width="2.33333" stroke-miterlimit="8" fill="#FFBE0B" fill-rule="evenodd"/><path d="M787.872 1497.6C788.626 1496.74 789.932 1496.66 790.789 1497.41 791.646 1498.16 791.729 1499.47 790.975 1500.33 790.221 1501.18 788.915 1501.27 788.058 1500.51 787.201 1499.76 787.118 1498.45 787.872 1497.6Z" stroke="#000000" stroke-width="2.33333" stroke-miterlimit="8" fill="#FFBE0B" fill-rule="evenodd"/><path d="M787.514 1487.67C789.555 1485.35 793.089 1485.13 795.407 1487.17 797.726 1489.21 797.951 1492.74 795.91 1495.06 793.869 1497.38 790.335 1497.6 788.017 1495.56 785.698 1493.52 785.473 1489.99 787.514 1487.67Z" stroke="#000000" stroke-width="2.33333" stroke-miterlimit="8" fill="#FFBE0B" fill-rule="evenodd"/><path d="M793.628 1483.65C794.266 1482.92 795.369 1482.85 796.094 1483.49 796.818 1484.13 796.888 1485.23 796.25 1485.96 795.613 1486.68 794.509 1486.75 793.785 1486.11 793.061 1485.47 792.991 1484.37 793.628 1483.65Z" stroke="#000000" stroke-width="2.33333" stroke-miterlimit="8" fill="#FFBE0B" fill-rule="evenodd"/><path d="M657.847 1437.98C657.428 1436.16 658.564 1434.34 660.385 1433.92 662.206 1433.5 664.023 1434.64 664.443 1436.46 664.862 1438.28 663.726 1440.1 661.904 1440.52 660.083 1440.94 658.267 1439.8 657.847 1437.98Z" stroke="#000000" stroke-width="2.33333" stroke-miterlimit="8" fill="#FFBE0B" fill-rule="evenodd"/><path d="M649.946 1432.51C649.315 1429.77 651.024 1427.04 653.764 1426.41 656.503 1425.78 659.236 1427.49 659.867 1430.23 660.498 1432.97 658.789 1435.7 656.049 1436.33 653.309 1436.96 650.577 1435.25 649.946 1432.51Z" stroke="#000000" stroke-width="2.33333" stroke-miterlimit="8" fill="#FFBE0B" fill-rule="evenodd"/><path d="M644.964 1433.16C644.666 1431.86 645.473 1430.57 646.767 1430.27 648.061 1429.98 649.351 1430.78 649.649 1432.08 649.947 1433.37 649.14 1434.66 647.846 1434.96 646.552 1435.26 645.262 1434.45 644.964 1433.16Z" stroke="#000000" stroke-width="2.33333" stroke-miterlimit="8" fill="#FFBE0B" fill-rule="evenodd"/><path d="M771.75 1432.04C772.984 1430.64 775.123 1430.5 776.526 1431.74 777.929 1432.97 778.065 1435.11 776.83 1436.51 775.595 1437.92 773.456 1438.05 772.053 1436.82 770.651 1435.58 770.515 1433.45 771.75 1432.04Z" stroke="#000000" stroke-width="2.33333" stroke-miterlimit="8" fill="#FFBE0B" fill-rule="evenodd"/><path d="M771.585 1422.44C773.443 1420.33 776.66 1420.12 778.77 1421.98 780.88 1423.84 781.085 1427.05 779.227 1429.17 777.37 1431.28 774.153 1431.48 772.043 1429.62 769.932 1427.77 769.728 1424.55 771.585 1422.44Z" stroke="#000000" stroke-width="2.33333" stroke-miterlimit="8" fill="#FFBE0B" fill-rule="evenodd"/><path d="M777.792 1436.36C778.669 1435.36 780.189 1435.26 781.185 1436.14 782.182 1437.02 782.279 1438.54 781.401 1439.53 780.524 1440.53 779.005 1440.63 778.008 1439.75 777.011 1438.87 776.915 1437.35 777.792 1436.36Z" stroke="#000000" stroke-width="2.33333" stroke-miterlimit="8" fill="#FFBE0B" fill-rule="evenodd"/><path d="M616.349 1404.26C614.064 1405.26 611.406 1404.21 610.412 1401.92 609.418 1399.64 610.465 1396.98 612.751 1395.99 615.036 1394.99 617.695 1396.04 618.688 1398.32 619.682 1400.61 618.635 1403.27 616.349 1404.26Z" stroke="#000000" stroke-width="2.33333" stroke-miterlimit="8" fill="#FFBE0B" fill-rule="evenodd"/><path d="M620.548 1407.54C619.405 1408.04 618.076 1407.51 617.579 1406.37 617.083 1405.23 617.606 1403.9 618.749 1403.4 619.892 1402.9 621.221 1403.43 621.718 1404.57 622.214 1405.71 621.691 1407.04 620.548 1407.54Z" stroke="#000000" stroke-width="2.33333" stroke-miterlimit="8" fill="#FFBE0B" fill-rule="evenodd"/><path d="M611.253 1411.85C608.968 1412.84 606.309 1411.79 605.316 1409.51 604.322 1407.22 605.369 1404.57 607.654 1403.57 609.94 1402.58 612.598 1403.63 613.592 1405.91 614.586 1408.2 613.538 1410.85 611.253 1411.85Z" stroke="#000000" stroke-width="2.33333" stroke-miterlimit="8" fill="#FFBE0B" fill-rule="evenodd"/><path d="M611.113 1396.07C609.97 1396.57 608.641 1396.04 608.144 1394.9 607.648 1393.76 608.171 1392.43 609.314 1391.93 610.457 1391.43 611.786 1391.96 612.282 1393.1 612.779 1394.24 612.256 1395.57 611.113 1396.07Z" stroke="#000000" stroke-width="2.33333" stroke-miterlimit="8" fill="#FFBE0B" fill-rule="evenodd"/><path d="M0 3.38409C-4.3084e-16 1.51511 1.51511 -4.3084e-16 3.38409 -8.61681e-16 5.25308-1.72336e-15 6.76819 1.51511 6.76819 3.38409 6.76819 5.25308 5.25308 6.76819 3.38409 6.76819 1.51511 6.76819-2.1542e-15 5.25308 0 3.38409Z" stroke="#000000" stroke-width="2.33333" stroke-miterlimit="8" fill="#FFBE0B" fill-rule="evenodd" transform="matrix(-0.418032 0.908432 0.908432 0.418032 576.402 1471.22)"/><path d="M0 6.58037C-8.37762e-16 2.94613 2.94611 -8.37769e-16 6.58031-1.67554e-15 10.2145-3.35107e-15 13.1606 2.94613 13.1606 6.58037 13.1606 10.2146 10.2145 13.1607 6.58031 13.1607 2.94611 13.1607-4.18881e-15 10.2146 0 6.58037Z" stroke="#000000" stroke-width="2.33333" stroke-miterlimit="8" fill="#FFBE0B" fill-rule="evenodd" transform="matrix(-0.418032 0.908432 0.908432 0.418032 570.797 1476.62)"/><path d="M0 3.38404C-4.30834e-16 1.51509 1.51509 -4.30834e-16 3.38404 -8.61667e-16 5.253-1.72333e-15 6.76808 1.51509 6.76808 3.38404 6.76808 5.253 5.253 6.76808 3.38404 6.76808 1.51509 6.76808-2.15417e-15 5.253 0 3.38404Z" stroke="#000000" stroke-width="2.33333" stroke-miterlimit="8" fill="#FFBE0B" fill-rule="evenodd" transform="matrix(-0.418032 0.908432 0.908432 0.418032 450.693 1451.89)"/><path d="M0 6.58031C-8.37762e-16 2.94611 2.94611 -8.37762e-16 6.58031-1.67552e-15 10.2145-3.35105e-15 13.1606 2.94611 13.1606 6.58031 13.1606 10.2145 10.2145 13.1606 6.58031 13.1606 2.94611 13.1606-4.18881e-15 10.2145 0 6.58031Z" stroke="#000000" stroke-width="2.33333" stroke-miterlimit="8" fill="#FFBE0B" fill-rule="evenodd" transform="matrix(-0.418032 0.908432 0.908432 0.418032 445.089 1457.29)"/><path d="M0 2.25612C-2.87234e-16 1.0101 1.0101 -2.87234e-16 2.25612 -5.74467e-16 3.50213-1.14893e-15 4.51223 1.0101 4.51223 2.25612 4.51223 3.50213 3.50213 4.51223 2.25612 4.51223 1.0101 4.51223-1.43617e-15 3.50213 0 2.25612Z" stroke="#000000" stroke-width="2.33333" stroke-miterlimit="8" fill="#FFBE0B" fill-rule="evenodd" transform="matrix(-0.435909 -0.899991 -0.899991 0.435909 436.672 1410.12)"/><path d="M0 3.21465C-4.09247e-16 1.43925 1.43918 -4.09267e-16 3.21449 -8.18535e-16 4.9898-1.63707e-15 6.42898 1.43925 6.42898 3.21465 6.42898 4.99005 4.9898 6.42929 3.21449 6.42929 1.43918 6.42929-2.04624e-15 4.99005 0 3.21465Z" stroke="#000000" stroke-width="2.33333" stroke-miterlimit="8" fill="#FFBE0B" fill-rule="evenodd" transform="matrix(-0.435909 -0.899991 -0.899991 0.435909 450.947 1416.48)"/><path d="M0 2.25627C-2.87234e-16 1.01017 1.0101 -2.87254e-16 2.25612 -5.74507e-16 3.50213-1.14901e-15 4.51223 1.01017 4.51223 2.25627 4.51223 3.50238 3.50213 4.51255 2.25612 4.51255 1.0101 4.51255-1.43617e-15 3.50238 0 2.25627Z" stroke="#000000" stroke-width="2.33333" stroke-miterlimit="8" fill="#FFBE0B" fill-rule="evenodd" transform="matrix(-0.435909 -0.899991 -0.899991 0.435909 445.263 1412.54)"/><path d="M0 2.94971C-3.75538e-16 1.32063 1.32063 -3.75538e-16 2.94971 -7.51075e-16 4.57879-1.50215e-15 5.89942 1.32063 5.89942 2.94971 5.89942 4.57879 4.57879 5.89942 2.94971 5.89942 1.32063 5.89942-1.87769e-15 4.57879 0 2.94971Z" stroke="#000000" stroke-width="2.33333" stroke-miterlimit="8" fill="#FFBE0B" fill-rule="evenodd" transform="matrix(-0.435909 -0.899991 -0.899991 0.435909 440.763 1414.94)"/><path d="M0 2.25627C-2.87234e-16 1.01017 1.0101 -2.87254e-16 2.25612 -5.74507e-16 3.50213-1.14901e-15 4.51223 1.01017 4.51223 2.25627 4.51223 3.50238 3.50213 4.51255 2.25612 4.51255 1.0101 4.51255-1.43617e-15 3.50238 0 2.25627Z" stroke="#000000" stroke-width="2.33333" stroke-miterlimit="8" fill="#FFBE0B" fill-rule="evenodd" transform="matrix(-0.435909 -0.899991 -0.899991 0.435909 442.066 1420.09)"/><path d="M0 2.25612C-2.8724e-16 1.0101 1.01012 -2.87234e-16 2.25617 -5.74467e-16 3.50221-1.14893e-15 4.51234 1.0101 4.51234 2.25612 4.51234 3.50213 3.50221 4.51223 2.25617 4.51223 1.01012 4.51223-1.4362e-15 3.50213 0 2.25612Z" stroke="#000000" stroke-width="2.33333" stroke-miterlimit="8" fill="#FFBE0B" fill-rule="evenodd" transform="matrix(0.707107 0.707107 0.707107 -0.707107 472.349 1407.92)"/><path d="M0 3.21454C-4.09261e-16 1.4392 1.43922 -4.09254e-16 3.21459 -8.18508e-16 4.98996-1.63702e-15 6.42919 1.4392 6.42919 3.21454 6.42919 4.98988 4.98996 6.42908 3.21459 6.42908 1.43922 6.42908-2.0463e-15 4.98988 0 3.21454Z" stroke="#000000" stroke-width="2.33333" stroke-miterlimit="8" fill="#FFBE0B" fill-rule="evenodd" transform="matrix(0.707107 0.707107 0.707107 -0.707107 484.395 1409.82)"/><path d="M0 2.25612C-2.8724e-16 1.0101 1.01012 -2.87234e-16 2.25617 -5.74467e-16 3.50221-1.14893e-15 4.51234 1.0101 4.51234 2.25612 4.51234 3.50213 3.50221 4.51223 2.25617 4.51223 1.01012 4.51223-1.4362e-15 3.50213 0 2.25612Z" stroke="#000000" stroke-width="2.33333" stroke-miterlimit="8" fill="#FFBE0B" fill-rule="evenodd" transform="matrix(0.707107 0.707107 0.707107 -0.707107 476.833 1408.92)"/><path d="M0 2.94966C-3.75538e-16 1.32061 1.32063 -3.75531e-16 2.94971 -7.51062e-16 4.57879-1.50212e-15 5.89942 1.32061 5.89942 2.94966 5.89942 4.57871 4.57879 5.89932 2.94971 5.89932 1.32063 5.89932-1.87769e-15 4.57871 0 2.94966Z" stroke="#000000" stroke-width="2.33333" stroke-miterlimit="8" fill="#FFBE0B" fill-rule="evenodd" transform="matrix(0.707107 0.707107 0.707107 -0.707107 480.294 1405.17)"/><path d="M0 2.25612C-2.8724e-16 1.0101 1.01012 -2.87234e-16 2.25617 -5.74467e-16 3.50221-1.14893e-15 4.51234 1.0101 4.51234 2.25612 4.51234 3.50213 3.50221 4.51223 2.25617 4.51223 1.01012 4.51223-1.4362e-15 3.50213 0 2.25612Z" stroke="#000000" stroke-width="2.33333" stroke-miterlimit="8" fill="#FFBE0B" fill-rule="evenodd" transform="matrix(0.707107 0.707107 0.707107 -0.707107 479.429 1399.98)"/><path d="M0 4.51239C-5.74481e-16 2.02027 2.02024 -5.74487e-16 4.51234-1.14897e-15 7.00443-2.29795e-15 9.02467 2.02027 9.02467 4.51239 9.02467 7.00451 7.00443 9.02478 4.51234 9.02478 2.02024 9.02478-2.8724e-15 7.00451 0 4.51239Z" stroke="#000000" stroke-width="2.33333" stroke-miterlimit="8" fill="#FFBE0B" fill-rule="evenodd" transform="matrix(0.398738 -0.917065 -0.917065 -0.398738 660.536 1413.88)"/><path d="M0 2.25622C-2.8724e-16 1.01014 1.01012 -2.87247e-16 2.25617 -5.74494e-16 3.50221-1.14899e-15 4.51234 1.01014 4.51234 2.25622 4.51234 3.5023 3.50221 4.51244 2.25617 4.51244 1.01012 4.51244-1.4362e-15 3.5023 0 2.25622Z" stroke="#000000" stroke-width="2.33333" stroke-miterlimit="8" fill="#FFBE0B" fill-rule="evenodd" transform="matrix(0.398738 -0.917065 -0.917065 -0.398738 666.648 1411.56)"/><path d="M0 4.51239C-5.74481e-16 2.02027 2.02024 -5.74487e-16 4.51234-1.14897e-15 7.00443-2.29795e-15 9.02467 2.02027 9.02467 4.51239 9.02467 7.00451 7.00443 9.02478 4.51234 9.02478 2.02024 9.02478-2.8724e-15 7.00451 0 4.51239Z" stroke="#000000" stroke-width="2.33333" stroke-miterlimit="8" fill="#FFBE0B" fill-rule="evenodd" transform="matrix(0.398738 -0.917065 -0.917065 -0.398738 671.961 1408.42)"/><path d="M0 2.25622C-2.8724e-16 1.01014 1.01012 -2.87247e-16 2.25617 -5.74494e-16 3.50221-1.14899e-15 4.51234 1.01014 4.51234 2.25622 4.51234 3.5023 3.50221 4.51244 2.25617 4.51244 1.01012 4.51244-1.4362e-15 3.5023 0 2.25622Z" stroke="#000000" stroke-width="2.33333" stroke-miterlimit="8" fill="#FFBE0B" fill-rule="evenodd" transform="matrix(0.398738 -0.917065 -0.917065 -0.398738 657.182 1404.29)"/><path d="M0 8C-1.01851e-15 3.58172 3.58172-1.01851e-15 8-2.03701e-15 12.4183-4.07403e-15 16 3.58172 16 8 16 12.4183 12.4183 16 8 16 3.58172 16-5.09253e-15 12.4183 0 8Z" stroke="#000000" stroke-width="2.33333" stroke-miterlimit="8" fill="#FFBE0B" fill-rule="evenodd" transform="matrix(-1 0 0 1 460 1493)"/><path d="M0 6C-8.27537e-16 2.68629 2.91015 -7.6388e-16 6.5-1.52776e-15 10.0899-3.05552e-15 13 2.68629 13 6 13 9.31371 10.0899 12 6.5 12 2.91015 12-4.13768e-15 9.31371 0 6Z" stroke="#000000" stroke-width="2.33333" stroke-miterlimit="8" fill="#FFBE0B" fill-rule="evenodd" transform="matrix(-1 0 0 1 506 1482)"/><path d="M0 5C-5.7291e-16 2.23858 2.01472 -6.36567e-16 4.5-1.27313e-15 6.98528-2.54627e-15 9 2.23858 9 5 9 7.76142 6.98528 10 4.5 10 2.01472 10-2.86455e-15 7.76142 0 5Z" stroke="#000000" stroke-width="2.33333" stroke-miterlimit="8" fill="#FFBE0B" fill-rule="evenodd" transform="matrix(-1 0 0 1 433 1436)"/><path d="M0 2C-3.18283e-16 0.89543 1.11929 -2.54627e-16 2.5 -5.09253e-16 3.88071-1.01851e-15 5 0.89543 5 2 5 3.10457 3.88071 4 2.5 4 1.11929 4-1.59142e-15 3.10457 0 2Z" stroke="#000000" stroke-width="2.33333" stroke-miterlimit="8" fill="#FFBE0B" fill-rule="evenodd" transform="matrix(-1 0 0 1 428 1432)"/><path d="M0 4.5C-5.7291e-16 2.01472 2.01472 -5.7291e-16 4.5-1.14582e-15 6.98528-2.29164e-15 9 2.01472 9 4.5 9 6.98528 6.98528 9 4.5 9 2.01472 9-2.86455e-15 6.98528 0 4.5Z" stroke="#000000" stroke-width="2.33333" stroke-miterlimit="8" fill="#FFBE0B" fill-rule="evenodd" transform="matrix(-1 0 0 1 435 1446)"/><path d="M0 2.5C-2.54627e-16 1.11929 0.89543 -3.18283e-16 2 -6.36567e-16 3.10457-1.27313e-15 4 1.11929 4 2.5 4 3.88071 3.10457 5 2 5 0.89543 5-1.27313e-15 3.88071 0 2.5Z" stroke="#000000" stroke-width="2.33333" stroke-miterlimit="8" fill="#FFBE0B" fill-rule="evenodd" transform="matrix(-1 0 0 1 439 1445)"/><path d="M0 2.08819C-2.65854e-16 0.934914 0.934914 -2.65854e-16 2.08819 -5.31709e-16 3.24146-1.06342e-15 4.17638 0.934914 4.17638 2.08819 4.17638 3.24146 3.24146 4.17638 2.08819 4.17638 0.934914 4.17638-1.32927e-15 3.24146 0 2.08819Z" stroke="#000000" stroke-width="2.33333" stroke-miterlimit="8" fill="#FFBE0B" fill-rule="evenodd" transform="matrix(-0.863872 -0.503711 -0.503711 0.863872 405.711 1391.87)"/><path d="M0 2.08819C-2.65854e-16 0.934914 0.934914 -2.65854e-16 2.08819 -5.31709e-16 3.24146-1.06342e-15 4.17638 0.934914 4.17638 2.08819 4.17638 3.24146 3.24146 4.17638 2.08819 4.17638 0.934914 4.17638-1.32927e-15 3.24146 0 2.08819Z" stroke="#000000" stroke-width="2.33333" stroke-miterlimit="8" fill="#FFBE0B" fill-rule="evenodd" transform="matrix(-0.863872 -0.503711 -0.503711 0.863872 404.814 1397.03)"/><path d="M0 2.08819C-2.65854e-16 0.934914 0.934914 -2.65854e-16 2.08819 -5.31709e-16 3.24146-1.06342e-15 4.17638 0.934914 4.17638 2.08819 4.17638 3.24146 3.24146 4.17638 2.08819 4.17638 0.934914 4.17638-1.32927e-15 3.24146 0 2.08819Z" stroke="#000000" stroke-width="2.33333" stroke-miterlimit="8" fill="#FFBE0B" fill-rule="evenodd" transform="matrix(-0.863872 -0.503711 -0.503711 0.863872 402.315 1400.99)"/><path d="M0 2.08819C-2.65854e-16 0.934914 0.934914 -2.65854e-16 2.08819 -5.31709e-16 3.24146-1.06342e-15 4.17638 0.934914 4.17638 2.08819 4.17638 3.24146 3.24146 4.17638 2.08819 4.17638 0.934914 4.17638-1.32927e-15 3.24146 0 2.08819Z" stroke="#000000" stroke-width="2.33333" stroke-miterlimit="8" fill="#FFBE0B" fill-rule="evenodd" transform="matrix(-0.863872 -0.503711 -0.503711 0.863872 409.782 1397.04)"/><path d="M0 2.08819C-2.65854e-16 0.934914 0.934914 -2.65854e-16 2.08819 -5.31709e-16 3.24146-1.06342e-15 4.17638 0.934914 4.17638 2.08819 4.17638 3.24146 3.24146 4.17638 2.08819 4.17638 0.934914 4.17638-1.32927e-15 3.24146 0 2.08819Z" stroke="#000000" stroke-width="2.33333" stroke-miterlimit="8" fill="#FFBE0B" fill-rule="evenodd" transform="matrix(-0.863872 -0.503711 -0.503711 0.863872 411.588 1401.48)"/><path d="M0 2.08819C-2.65854e-16 0.934914 0.934914 -2.65854e-16 2.08819 -5.31709e-16 3.24146-1.06342e-15 4.17638 0.934914 4.17638 2.08819 4.17638 3.24146 3.24146 4.17638 2.08819 4.17638 0.934914 4.17638-1.32927e-15 3.24146 0 2.08819Z" stroke="#000000" stroke-width="2.33333" stroke-miterlimit="8" fill="#FFBE0B" fill-rule="evenodd" transform="matrix(-0.863872 -0.503711 -0.503711 0.863872 410.129 1406.32)"/><path d="M0 3.38404C-4.3084e-16 1.51509 1.51511 -4.30834e-16 3.38409 -8.61667e-16 5.25308-1.72333e-15 6.76819 1.51509 6.76819 3.38404 6.76819 5.253 5.25308 6.76808 3.38409 6.76808 1.51511 6.76808-2.1542e-15 5.253 0 3.38404Z" stroke="#000000" stroke-width="2.33333" stroke-miterlimit="8" fill="#FFBE0B" fill-rule="evenodd" transform="matrix(0.314329 0.949314 0.949314 -0.314329 672.97 1456.76)"/><path d="M0 5.51837C-7.02576e-16 2.47066 2.47071 -7.02562e-16 5.51848-1.40512e-15 8.56625-2.81025e-15 11.037 2.47066 11.037 5.51837 11.037 8.56608 8.56625 11.0367 5.51848 11.0367 2.47071 11.0367-3.51288e-15 8.56608 0 5.51837Z" stroke="#000000" stroke-width="2.33333" stroke-miterlimit="8" fill="#FFBE0B" fill-rule="evenodd" transform="matrix(0.314329 0.949314 0.949314 -0.314329 661.499 1459.13)"/><path d="M0 4.51249C-5.74481e-16 2.02031 2.02024 -5.74501e-16 4.51234-1.149e-15 7.00443-2.298e-15 9.02467 2.02031 9.02467 4.51249 9.02467 7.00467 7.00443 9.02499 4.51234 9.02499 2.02024 9.02499-2.8724e-15 7.00467 0 4.51249Z" stroke="#000000" stroke-width="2.33333" stroke-miterlimit="8" fill="#FFBE0B" fill-rule="evenodd" transform="matrix(-0.50236 -0.864658 -0.864658 0.50236 524.123 1423.34)"/><path d="M0 2.25622C-2.8724e-16 1.01014 1.01012 -2.87247e-16 2.25617 -5.74494e-16 3.50221-1.14899e-15 4.51234 1.01014 4.51234 2.25622 4.51234 3.5023 3.50221 4.51244 2.25617 4.51244 1.01012 4.51244-1.4362e-15 3.5023 0 2.25622Z" stroke="#000000" stroke-width="2.33333" stroke-miterlimit="8" fill="#FFBE0B" fill-rule="evenodd" transform="matrix(-0.50236 -0.864658 -0.864658 0.50236 522.323 1429.79)"/><path d="M0 4.51249C-5.74481e-16 2.02031 2.02024 -5.74501e-16 4.51234-1.149e-15 7.00443-2.298e-15 9.02467 2.02031 9.02467 4.51249 9.02467 7.00467 7.00443 9.02499 4.51234 9.02499 2.02024 9.02499-2.8724e-15 7.00467 0 4.51249Z" stroke="#000000" stroke-width="2.33333" stroke-miterlimit="8" fill="#FFBE0B" fill-rule="evenodd" transform="matrix(-0.50236 -0.864658 -0.864658 0.50236 517.284 1417.3)"/><path d="M0 2.25622C-2.8724e-16 1.01014 1.01012 -2.87247e-16 2.25617 -5.74494e-16 3.50221-1.14899e-15 4.51234 1.01014 4.51234 2.25622 4.51234 3.5023 3.50221 4.51244 2.25617 4.51244 1.01012 4.51244-1.4362e-15 3.5023 0 2.25622Z" stroke="#000000" stroke-width="2.33333" stroke-miterlimit="8" fill="#FFBE0B" fill-rule="evenodd" transform="matrix(-0.50236 -0.864658 -0.864658 0.50236 525.943 1417.14)"/><path d="M0 3.38404C-4.30834e-16 1.51509 1.51509 -4.30834e-16 3.38404 -8.61667e-16 5.253-1.72333e-15 6.76808 1.51509 6.76808 3.38404 6.76808 5.253 5.253 6.76808 3.38404 6.76808 1.51509 6.76808-2.15417e-15 5.253 0 3.38404Z" stroke="#000000" stroke-width="2.33333" stroke-miterlimit="8" fill="#FFBE0B" fill-rule="evenodd" transform="matrix(-0.7506 0.660757 0.660757 0.7506 811.483 1459.32)"/><path d="M0 5.09045C-6.48088e-16 2.27907 2.27909 -6.48082e-16 5.0905-1.29616e-15 7.9019-2.59233e-15 10.181 2.27907 10.181 5.09045 10.181 7.90182 7.9019 10.1809 5.0905 10.1809 2.27909 10.1809-3.24044e-15 7.90182 0 5.09045Z" stroke="#000000" stroke-width="2.33333" stroke-miterlimit="8" fill="#FFBE0B" fill-rule="evenodd" transform="matrix(-0.7506 0.660757 0.660757 0.7506 805.625 1450.57)"/><path d="M0 2.40415C-3.0608e-16 1.07637 1.07637 -3.0608e-16 2.40415 -6.1216e-16 3.73192-1.22432e-15 4.80829 1.07637 4.80829 2.40415 4.80829 3.73192 3.73192 4.80829 2.40415 4.80829 1.07637 4.80829-1.5304e-15 3.73192 0 2.40415Z" stroke="#000000" stroke-width="2.33333" stroke-miterlimit="8" fill="#FFBE0B" fill-rule="evenodd" transform="matrix(-0.7506 0.660757 0.660757 0.7506 797.675 1452.05)"/><path d="M0 3.38404C-4.30847e-16 1.51509 1.51513 -4.30834e-16 3.38415 -8.61667e-16 5.25316-1.72333e-15 6.76829 1.51509 6.76829 3.38404 6.76829 5.253 5.25316 6.76808 3.38415 6.76808 1.51513 6.76808-2.15424e-15 5.253 0 3.38404Z" stroke="#000000" stroke-width="2.33333" stroke-miterlimit="8" fill="#FFBE0B" fill-rule="evenodd" transform="matrix(-0.7506 0.660757 0.660757 0.7506 605.68 1454.5)"/><path d="M0 5.09045C-6.48108e-16 2.27907 2.27916 -6.48082e-16 5.09066-1.29616e-15 7.90215-2.59233e-15 10.1813 2.27907 10.1813 5.09045 10.1813 7.90182 7.90215 10.1809 5.09066 10.1809 2.27916 10.1809-3.24054e-15 7.90182 0 5.09045Z" stroke="#000000" stroke-width="2.33333" stroke-miterlimit="8" fill="#FFBE0B" fill-rule="evenodd" transform="matrix(-0.7506 0.660757 0.660757 0.7506 613.743 1447.75)"/><path d="M0 2.40415C-3.06093e-16 1.07637 1.07642 -3.0608e-16 2.40425 -6.1216e-16 3.73208-1.22432e-15 4.8085 1.07637 4.8085 2.40415 4.8085 3.73192 3.73208 4.80829 2.40425 4.80829 1.07642 4.80829-1.53047e-15 3.73192 0 2.40415Z" stroke="#000000" stroke-width="2.33333" stroke-miterlimit="8" fill="#FFBE0B" fill-rule="evenodd" transform="matrix(-0.7506 0.660757 0.660757 0.7506 614.952 1444.01)"/><path d="M0 3.38415C-4.30847e-16 1.51513 1.51513 -4.30847e-16 3.38415 -8.61694e-16 5.25316-1.72339e-15 6.76829 1.51513 6.76829 3.38415 6.76829 5.25316 5.25316 6.76829 3.38415 6.76829 1.51513 6.76829-2.15424e-15 5.25316 0 3.38415Z" stroke="#000000" stroke-width="2.33333" stroke-miterlimit="8" fill="#FFBE0B" fill-rule="evenodd" transform="matrix(-0.7506 0.660757 0.660757 0.7506 573.518 1394.45)"/><path d="M0 5.0906C-6.48102e-16 2.27914 2.27914 -6.48102e-16 5.0906-1.2962e-15 7.90207-2.59241e-15 10.1812 2.27914 10.1812 5.0906 10.1812 7.90207 7.90207 10.1812 5.0906 10.1812 2.27914 10.1812-3.24051e-15 7.90207 0 5.0906Z" stroke="#000000" stroke-width="2.33333" stroke-miterlimit="8" fill="#FFBE0B" fill-rule="evenodd" transform="matrix(-0.7506 0.660757 0.660757 0.7506 579.897 1398.25)"/><path d="M0 2.4042C-3.06087e-16 1.0764 1.0764 -3.06087e-16 2.4042 -6.12173e-16 3.732-1.22435e-15 4.8084 1.0764 4.8084 2.4042 4.8084 3.732 3.732 4.8084 2.4042 4.8084 1.0764 4.8084-1.53043e-15 3.732 0 2.4042Z" stroke="#000000" stroke-width="2.33333" stroke-miterlimit="8" fill="#FFBE0B" fill-rule="evenodd" transform="matrix(-0.7506 0.660757 0.660757 0.7506 572.234 1405.12)"/><path d="M0 3.38404C-4.3084e-16 1.51509 1.51511 -4.30834e-16 3.38409 -8.61667e-16 5.25308-1.72333e-15 6.76819 1.51509 6.76819 3.38404 6.76819 5.253 5.25308 6.76808 3.38409 6.76808 1.51511 6.76808-2.1542e-15 5.253 0 3.38404Z" stroke="#000000" stroke-width="2.33333" stroke-miterlimit="8" fill="#FFBE0B" fill-rule="evenodd" transform="matrix(0.295766 0.955261 0.955261 -0.295766 914.376 1300.83)"/><path d="M0 5.09055C-6.48095e-16 2.27912 2.27912 -6.48095e-16 5.09055-1.29619e-15 7.90198-2.59238e-15 10.1811 2.27912 10.1811 5.09055 10.1811 7.90198 7.90198 10.1811 5.09055 10.1811 2.27912 10.1811-3.24048e-15 7.90198 0 5.09055Z" stroke="#000000" stroke-width="2.33333" stroke-miterlimit="8" fill="#FFBE0B" fill-rule="evenodd" transform="matrix(0.295766 0.955261 0.955261 -0.295766 904 1302.6)"/><path d="M0 2.40415C-3.06087e-16 1.07637 1.0764 -3.0608e-16 2.4042 -6.1216e-16 3.732-1.22432e-15 4.8084 1.07637 4.8084 2.40415 4.8084 3.73192 3.732 4.80829 2.4042 4.80829 1.0764 4.80829-1.53043e-15 3.73192 0 2.40415Z" stroke="#000000" stroke-width="2.33333" stroke-miterlimit="8" fill="#FFBE0B" fill-rule="evenodd" transform="matrix(0.295766 0.955261 0.955261 -0.295766 907.137 1312.4)"/><path d="M0 3.38409C-4.30854e-16 1.51511 1.51516 -4.3084e-16 3.3842 -8.61681e-16 5.25324-1.72336e-15 6.7684 1.51511 6.7684 3.38409 6.7684 5.25308 5.25324 6.76819 3.3842 6.76819 1.51516 6.76819-2.15427e-15 5.25308 0 3.38409Z" stroke="#000000" stroke-width="2.33333" stroke-miterlimit="8" fill="#FFBE0B" fill-rule="evenodd" transform="matrix(0.912382 0.40934 0.40934 -0.912382 865.522 1304.1)"/><path d="M0 5.09055C-6.48095e-16 2.27912 2.27912 -6.48095e-16 5.09055-1.29619e-15 7.90198-2.59238e-15 10.1811 2.27912 10.1811 5.09055 10.1811 7.90198 7.90198 10.1811 5.09055 10.1811 2.27912 10.1811-3.24048e-15 7.90198 0 5.09055Z" stroke="#000000" stroke-width="2.33333" stroke-miterlimit="8" fill="#FFBE0B" fill-rule="evenodd" transform="matrix(0.912382 0.40934 0.40934 -0.912382 872.898 1307.6)"/><path d="M0 2.40415C-3.0608e-16 1.07637 1.07637 -3.0608e-16 2.40415 -6.1216e-16 3.73192-1.22432e-15 4.80829 1.07637 4.80829 2.40415 4.80829 3.73192 3.73192 4.80829 2.40415 4.80829 1.07637 4.80829-1.5304e-15 3.73192 0 2.40415Z" stroke="#000000" stroke-width="2.33333" stroke-miterlimit="8" fill="#FFBE0B" fill-rule="evenodd" transform="matrix(0.912382 0.40934 0.40934 -0.912382 882.33 1311.72)"/><path d="M0 1.89942C-2.41815e-16 0.8504 0.850377 -2.41822e-16 1.89937 -4.83644e-16 2.94836 -9.67287e-16 3.79874 0.8504 3.79874 1.89942 3.79874 2.94844 2.94836 3.79885 1.89937 3.79885 0.850377 3.79885-1.20908e-15 2.94844 0 1.89942Z" stroke="#000000" stroke-width="2.33333" stroke-miterlimit="8" fill="#FFBE0B" fill-rule="evenodd" transform="matrix(0.314329 0.949314 0.949314 -0.314329 646.19 1479.69)"/><path d="M0 5.8885C-7.49665e-16 2.63637 2.6363 -7.49685e-16 5.88835-1.49937e-15 9.14039-2.99874e-15 11.7767 2.63637 11.7767 5.8885 11.7767 9.14063 9.14039 11.777 5.88835 11.777 2.6363 11.777-3.74832e-15 9.14063 0 5.8885Z" stroke="#000000" stroke-width="2.33333" stroke-miterlimit="8" fill="#FFBE0B" fill-rule="evenodd" transform="matrix(0.314329 0.949314 0.949314 -0.314329 632.91 1478.58)"/><path d="M0 2.85627C-3.63642e-16 1.2788 1.2788 -3.63642e-16 2.85627 -7.27283e-16 4.43375-1.45457e-15 5.71255 1.2788 5.71255 2.85627 5.71255 4.43375 4.43375 5.71255 2.85627 5.71255 1.2788 5.71255-1.81821e-15 4.43375 0 2.85627Z" stroke="#000000" stroke-width="2.33333" stroke-miterlimit="8" fill="#FFBE0B" fill-rule="evenodd" transform="matrix(-0.7506 0.660757 0.660757 0.7506 709.198 1471.86)"/><path d="M0 5.51848C-7.02576e-16 2.47071 2.47071 -7.02576e-16 5.51848-1.40515e-15 8.56625-2.8103e-15 11.037 2.47071 11.037 5.51848 11.037 8.56625 8.56625 11.037 5.51848 11.037 2.47071 11.037-3.51288e-15 8.56625 0 5.51848Z" stroke="#000000" stroke-width="2.33333" stroke-miterlimit="8" fill="#FFBE0B" fill-rule="evenodd" transform="matrix(-0.7506 0.660757 0.660757 0.7506 714.275 1474.95)"/><path d="M0 3.38409C-4.3084e-16 1.51511 1.51511 -4.3084e-16 3.38409 -8.61681e-16 5.25308-1.72336e-15 6.76819 1.51511 6.76819 3.38409 6.76819 5.25308 5.25308 6.76819 3.38409 6.76819 1.51511 6.76819-2.1542e-15 5.25308 0 3.38409Z" stroke="#000000" stroke-width="2.33333" stroke-miterlimit="8" fill="#FFBE0B" fill-rule="evenodd" transform="matrix(-0.7506 0.660757 0.660757 0.7506 847.115 1308.86)"/><path d="M0 5.09055C-6.48095e-16 2.27912 2.27912 -6.48095e-16 5.09055-1.29619e-15 7.90199-2.59238e-15 10.1811 2.27912 10.1811 5.09055 10.1811 7.90199 7.90199 10.1811 5.09055 10.1811 2.27912 10.1811-3.24048e-15 7.90199 0 5.09055Z" stroke="#000000" stroke-width="2.33333" stroke-miterlimit="8" fill="#FFBE0B" fill-rule="evenodd" transform="matrix(-0.7506 0.660757 0.660757 0.7506 839.115 1309.75)"/><path d="M0 2.4042C-3.06087e-16 1.0764 1.0764 -3.06087e-16 2.4042 -6.12173e-16 3.732-1.22435e-15 4.8084 1.0764 4.8084 2.4042 4.8084 3.732 3.732 4.8084 2.4042 4.8084 1.0764 4.8084-1.53043e-15 3.732 0 2.4042Z" stroke="#000000" stroke-width="2.33333" stroke-miterlimit="8" fill="#FFBE0B" fill-rule="evenodd" transform="matrix(-0.7506 0.660757 0.660757 0.7506 833.612 1319.41)"/><path d="M0 3.38415C-4.30847e-16 1.51513 1.51513 -4.30847e-16 3.38415 -8.61694e-16 5.25316-1.72339e-15 6.76829 1.51513 6.76829 3.38415 6.76829 5.25316 5.25316 6.76829 3.38415 6.76829 1.51513 6.76829-2.15424e-15 5.25316 0 3.38415Z" stroke="#000000" stroke-width="2.33333" stroke-miterlimit="8" fill="#FFBE0B" fill-rule="evenodd" transform="matrix(0.61458 -0.788854 -0.788854 -0.61458 841.979 1362.42)"/><path d="M0 5.0906C-6.48102e-16 2.27914 2.27914 -6.48102e-16 5.0906-1.2962e-15 7.90207-2.59241e-15 10.1812 2.27914 10.1812 5.0906 10.1812 7.90207 7.90207 10.1812 5.0906 10.1812 2.27914 10.1812-3.24051e-15 7.90207 0 5.0906Z" stroke="#000000" stroke-width="2.33333" stroke-miterlimit="8" fill="#FFBE0B" fill-rule="evenodd" transform="matrix(0.61458 -0.788854 -0.788854 -0.61458 829.805 1363.75)"/><path d="M0 2.4042C-3.06087e-16 1.0764 1.0764 -3.06087e-16 2.4042 -6.12173e-16 3.732-1.22435e-15 4.8084 1.0764 4.8084 2.4042 4.8084 3.732 3.732 4.8084 2.4042 4.8084 1.0764 4.8084-1.53043e-15 3.732 0 2.4042Z" stroke="#000000" stroke-width="2.33333" stroke-miterlimit="8" fill="#FFBE0B" fill-rule="evenodd" transform="matrix(0.61458 -0.788854 -0.788854 -0.61458 836.215 1363.92)"/><path d="M0 2.06693C-2.63148e-16 0.925396 0.925396 -2.63148e-16 2.06693 -5.26295e-16 3.20846-1.05259e-15 4.13386 0.925396 4.13386 2.06693 4.13386 3.20846 3.20846 4.13386 2.06693 4.13386 0.925396 4.13386-1.31574e-15 3.20846 0 2.06693Z" stroke="#000000" stroke-width="2.33333" stroke-miterlimit="8" fill="#FFBE0B" fill-rule="evenodd" transform="matrix(-0.7506 0.660757 0.660757 0.7506 831.48 1400.12)"/><path d="M0 5.59249C-7.11999e-16 2.50384 2.50384 -7.11999e-16 5.59249-1.424e-15 8.68114-2.848e-15 11.185 2.50384 11.185 5.59249 11.185 8.68114 8.68114 11.185 5.59249 11.185 2.50384 11.185-3.56e-15 8.68114 0 5.59249Z" stroke="#000000" stroke-width="2.33333" stroke-miterlimit="8" fill="#FFBE0B" fill-rule="evenodd" transform="matrix(-0.7506 0.660757 0.660757 0.7506 829.509 1387.55)"/><path d="M0 1.74661C-2.22367e-16 0.781986 0.781986 -2.22367e-16 1.74661 -4.44735e-16 2.71124 -8.89469e-16 3.49323 0.781986 3.49323 1.74661 3.49323 2.71124 2.71124 3.49323 1.74661 3.49323 0.781986 3.49323-1.11184e-15 2.71124 0 1.74661Z" stroke="#000000" stroke-width="2.33333" stroke-miterlimit="8" fill="#FFBE0B" fill-rule="evenodd" transform="matrix(-0.7506 0.660757 0.660757 0.7506 822.417 1397.12)"/><path d="M0 3.38409C-4.30854e-16 1.51511 1.51516 -4.3084e-16 3.3842 -8.61681e-16 5.25324-1.72336e-15 6.7684 1.51511 6.7684 3.38409 6.7684 5.25308 5.25324 6.76819 3.3842 6.76819 1.51516 6.76819-2.15427e-15 5.25308 0 3.38409Z" stroke="#000000" stroke-width="2.33333" stroke-miterlimit="8" fill="#FFBE0B" fill-rule="evenodd" transform="matrix(0.726531 -0.687134 -0.687134 -0.726531 821.539 1435.26)"/><path d="M0 5.0906C-6.48102e-16 2.27914 2.27914 -6.48102e-16 5.0906-1.2962e-15 7.90207-2.59241e-15 10.1812 2.27914 10.1812 5.0906 10.1812 7.90207 7.90207 10.1812 5.0906 10.1812 2.27914 10.1812-3.24051e-15 7.90207 0 5.0906Z" stroke="#000000" stroke-width="2.33333" stroke-miterlimit="8" fill="#FFBE0B" fill-rule="evenodd" transform="matrix(0.726531 -0.687134 -0.687134 -0.726531 822.89 1446.11)"/><path d="M0 2.4042C-3.06087e-16 1.0764 1.0764 -3.06087e-16 2.4042 -6.12173e-16 3.732-1.22435e-15 4.8084 1.0764 4.8084 2.4042 4.8084 3.732 3.732 4.8084 2.4042 4.8084 1.0764 4.8084-1.53043e-15 3.732 0 2.4042Z" stroke="#000000" stroke-width="2.33333" stroke-miterlimit="8" fill="#FFBE0B" fill-rule="evenodd" transform="matrix(0.726531 -0.687134 -0.687134 -0.726531 817.004 1430.01)"/><path d="M0 3.38415C-4.30834e-16 1.51513 1.51509 -4.30847e-16 3.38404 -8.61694e-16 5.253-1.72339e-15 6.76808 1.51513 6.76808 3.38415 6.76808 5.25316 5.253 6.76829 3.38404 6.76829 1.51509 6.76829-2.15417e-15 5.25316 0 3.38415Z" stroke="#000000" stroke-width="2.33333" stroke-miterlimit="8" fill="#FFBE0B" fill-rule="evenodd" transform="matrix(0.275596 -0.961274 -0.961274 -0.275596 753.049 1458.85)"/><path d="M0 5.09055C-6.48102e-16 2.27912 2.27914 -6.48095e-16 5.0906-1.29619e-15 7.90207-2.59238e-15 10.1812 2.27912 10.1812 5.09055 10.1812 7.90199 7.90207 10.1811 5.0906 10.1811 2.27914 10.1811-3.24051e-15 7.90199 0 5.09055Z" stroke="#000000" stroke-width="2.33333" stroke-miterlimit="8" fill="#FFBE0B" fill-rule="evenodd" transform="matrix(0.275596 -0.961274 -0.961274 -0.275596 759.733 1467.49)"/><path d="M0 2.40415C-3.06087e-16 1.07637 1.0764 -3.0608e-16 2.4042 -6.1216e-16 3.732-1.22432e-15 4.8084 1.07637 4.8084 2.40415 4.8084 3.73192 3.732 4.80829 2.4042 4.80829 1.0764 4.80829-1.53043e-15 3.73192 0 2.40415Z" stroke="#000000" stroke-width="2.33333" stroke-miterlimit="8" fill="#FFBE0B" fill-rule="evenodd" transform="matrix(0.275596 -0.961274 -0.961274 -0.275596 750.892 1467.75)"/><path d="M0 4.51234C-5.74474e-16 2.02024 2.02022 -5.74481e-16 4.51228-1.14896e-15 7.00435-2.29792e-15 9.02457 2.02024 9.02457 4.51234 9.02457 7.00443 7.00435 9.02467 4.51228 9.02467 2.02022 9.02467-2.87237e-15 7.00443 0 4.51234Z" stroke="#000000" stroke-width="2.33333" stroke-miterlimit="8" fill="#FFBE0B" fill-rule="evenodd" transform="matrix(0.817655 -0.575709 -0.575709 -0.817655 744.047 1408.83)"/><path d="M0 2.25617C-2.8724e-16 1.01012 1.01012 -2.8724e-16 2.25617 -5.74481e-16 3.50221-1.14896e-15 4.51234 1.01012 4.51234 2.25617 4.51234 3.50221 3.50221 4.51234 2.25617 4.51234 1.01012 4.51234-1.4362e-15 3.50221 0 2.25617Z" stroke="#000000" stroke-width="2.33333" stroke-miterlimit="8" fill="#FFBE0B" fill-rule="evenodd" transform="matrix(0.817655 -0.575709 -0.575709 -0.817655 737.457 1407.59)"/><path d="M0 4.51234C-5.74474e-16 2.02024 2.02022 -5.74481e-16 4.51228-1.14896e-15 7.00435-2.29792e-15 9.02457 2.02024 9.02457 4.51234 9.02457 7.00443 7.00435 9.02467 4.51228 9.02467 2.02022 9.02467-2.87237e-15 7.00443 0 4.51234Z" stroke="#000000" stroke-width="2.33333" stroke-miterlimit="8" fill="#FFBE0B" fill-rule="evenodd" transform="matrix(0.817655 -0.575709 -0.575709 -0.817655 736.107 1402.84)"/><path d="M0 2.25617C-2.8724e-16 1.01012 1.01012 -2.8724e-16 2.25617 -5.74481e-16 3.50221-1.14896e-15 4.51234 1.01012 4.51234 2.25617 4.51234 3.50221 3.50221 4.51234 2.25617 4.51234 1.01012 4.51234-1.4362e-15 3.50221 0 2.25617Z" stroke="#000000" stroke-width="2.33333" stroke-miterlimit="8" fill="#FFBE0B" fill-rule="evenodd" transform="matrix(0.817655 -0.575709 -0.575709 -0.817655 747.928 1412.36)"/><path d="M412 1484.5C412 1479.81 415.806 1476 420.5 1476 425.194 1476 429 1479.81 429 1484.5 429 1489.19 425.194 1493 420.5 1493 415.806 1493 412 1489.19 412 1484.5Z" stroke="#000000" stroke-width="2.33333" stroke-miterlimit="8" fill="#FFBE0B" fill-rule="evenodd"/><path d="M388 1498C388 1493.03 392.029 1489 397 1489 401.971 1489 406 1493.03 406 1498 406 1502.97 401.971 1507 397 1507 392.029 1507 388 1502.97 388 1498Z" stroke="#000000" stroke-width="2.33333" stroke-miterlimit="8" fill="#FFBE0B" fill-rule="evenodd"/><path d="M543 1504C543 1500.69 545.91 1498 549.5 1498 553.09 1498 556 1500.69 556 1504 556 1507.31 553.09 1510 549.5 1510 545.91 1510 543 1507.31 543 1504Z" stroke="#000000" stroke-width="2.33333" stroke-miterlimit="8" fill="#FFBE0B" fill-rule="evenodd"/><path d="M0 3.38404C-4.30834e-16 1.51509 1.51509 -4.30834e-16 3.38404 -8.61667e-16 5.253-1.72333e-15 6.76808 1.51509 6.76808 3.38404 6.76808 5.253 5.253 6.76808 3.38404 6.76808 1.51509 6.76808-2.15417e-15 5.253 0 3.38404Z" stroke="#000000" stroke-width="2.33333" stroke-miterlimit="8" fill="#FFBE0B" fill-rule="evenodd" transform="matrix(-0.418032 0.908432 0.908432 0.418032 530.047 1469.41)"/><path d="M0 6.58031C-8.37762e-16 2.94611 2.94611 -8.37762e-16 6.58031-1.67552e-15 10.2145-3.35105e-15 13.1606 2.94611 13.1606 6.58031 13.1606 10.2145 10.2145 13.1606 6.58031 13.1606 2.94611 13.1606-4.18881e-15 10.2145 0 6.58031Z" stroke="#000000" stroke-width="2.33333" stroke-miterlimit="8" fill="#FFBE0B" fill-rule="evenodd" transform="matrix(-0.418032 0.908432 0.908432 0.418032 524.443 1474.81)"/><path d="M364.645 1393.37C365.41 1395.07 364.648 1397.07 362.942 1397.84 361.237 1398.6 359.234 1397.84 358.469 1396.14 357.704 1394.43 358.467 1392.43 360.172 1391.66 361.877 1390.9 363.88 1391.66 364.645 1393.37Z" stroke="#000000" stroke-width="2.33333" stroke-miterlimit="8" fill="#FFBE0B" fill-rule="evenodd"/><path d="M369.477 1400.76C370.628 1403.33 369.481 1406.34 366.916 1407.49 364.351 1408.64 361.339 1407.5 360.188 1404.93 359.037 1402.37 360.184 1399.35 362.749 1398.2 365.314 1397.05 368.326 1398.2 369.477 1400.76Z" stroke="#000000" stroke-width="2.33333" stroke-miterlimit="8" fill="#FFBE0B" fill-rule="evenodd"/><path d="M361.145 1407.34C361.689 1408.55 361.147 1409.97 359.936 1410.52 358.724 1411.06 357.302 1410.52 356.758 1409.31 356.215 1408.1 356.756 1406.67 357.967 1406.13 359.179 1405.59 360.602 1406.13 361.145 1407.34Z" stroke="#000000" stroke-width="2.33333" stroke-miterlimit="8" fill="#FFBE0B" fill-rule="evenodd"/><path d="M0 0 44.5627 0.000104987" stroke="#000000" stroke-width="3.33333" stroke-linecap="round" stroke-miterlimit="8" fill="none" fill-rule="evenodd" transform="matrix(1.83697e-16 1 1 -1.83697e-16 835.5 1237.5)"/><path d="M326.5 1195.5 326.5 1281.72" stroke="#000000" stroke-width="3.33333" stroke-linecap="round" stroke-miterlimit="8" fill="none" fill-rule="evenodd"/><text font-family="Open Sans,Open Sans_MSFontService,sans-serif" font-weight="300" font-size="37" transform="translate(496.833 1256)">Length (<tspan font-style="italic" font-size="37" x="135.5" y="0">L</tspan><tspan font-size="37" x="152.667" y="0">)</tspan></text><path d="M880.5 1381.5 1050.54 1381.5" stroke="#000000" stroke-width="3.33333" stroke-linecap="round" stroke-miterlimit="8" fill="none" fill-rule="evenodd"/><text font-family="Open Sans,Open Sans_MSFontService,sans-serif" font-weight="300" font-size="37" transform="translate(85.7977 1276)">Inlet (<tspan font-style="italic" font-size="37" x="92.6667" y="0">Q</tspan><tspan font-size="37" x="119.333" y="0">)</tspan></text><path d="M875.5 1517.5 1086.75 1517.5" stroke="#000000" stroke-width="3.33333" stroke-linecap="round" stroke-miterlimit="8" fill="none" fill-rule="evenodd"/><path d="M1045.17 1293.5 1045.17 1376.39C1045.17 1377.31 1044.42 1378.05 1043.5 1378.05 1042.58 1378.05 1041.83 1377.31 1041.83 1376.39L1041.83 1293.5C1041.83 1292.58 1042.58 1291.83 1043.5 1291.83 1044.42 1291.83 1045.17 1292.58 1045.17 1293.5ZM1050.89 1361.99 1043.5 1380.99 1036.11 1361.99C1035.78 1361.13 1036.2 1360.17 1037.06 1359.83 1037.92 1359.5 1038.89 1359.93 1039.22 1360.78L1045.05 1375.78 1041.95 1375.78 1047.78 1360.78C1048.11 1359.93 1049.08 1359.5 1049.94 1359.83 1050.8 1360.17 1051.22 1361.13 1050.89 1361.99Z"/><path d="M1001.5 1293.5 1120.14 1293.5" stroke="#000000" stroke-width="3.33333" stroke-linecap="round" stroke-miterlimit="8" fill="none" fill-rule="evenodd"/><path d="M1080.17 1293.5 1080.17 1512.96C1080.17 1513.88 1079.42 1514.63 1078.5 1514.63 1077.58 1514.63 1076.83 1513.88 1076.83 1512.96L1076.83 1293.5C1076.83 1292.58 1077.58 1291.83 1078.5 1291.83 1079.42 1291.83 1080.17 1292.58 1080.17 1293.5ZM1085.89 1498.57 1078.5 1517.56 1071.11 1498.57C1070.78 1497.71 1071.2 1496.74 1072.06 1496.41 1072.92 1496.08 1073.89 1496.5 1074.22 1497.36L1080.05 1512.36 1076.95 1512.36 1082.78 1497.36C1083.11 1496.5 1084.08 1496.08 1084.94 1496.41 1085.8 1496.74 1086.22 1497.71 1085.89 1498.57Z"/><text font-family="Open Sans,Open Sans_MSFontService,sans-serif" font-style="italic" font-weight="300" font-size="37" transform="translate(1024.11 1273)">r<tspan font-style="normal" font-size="25" x="13.6666" y="8">1</tspan><tspan font-size="37" x="47.7632" y="0">r</tspan><tspan font-style="normal" font-size="25" x="61.4298" y="8">2</tspan></text><path d="M1328.06 1293 1352.5 1293 1352.48 1293.45C1352.48 1416.81 1452.33 1516.82 1575.5 1516.82 1698.67 1516.82 1798.52 1416.81 1798.52 1293.45L1798.5 1293 1822.94 1293 1823 1294.11C1823 1431.02 1712.19 1542 1575.5 1542 1438.81 1542 1328 1431.02 1328 1294.11Z" stroke="#000000" stroke-width="4" stroke-miterlimit="8" fill="#F2F2F2" fill-rule="evenodd"/><path d="M1489.05 1293 1661.95 1293 1662 1293.45C1662 1341.25 1623.27 1380 1575.5 1380 1527.73 1380 1489 1341.25 1489 1293.45Z" stroke="#000000" stroke-width="4" stroke-miterlimit="8" fill="#F2F2F2" fill-rule="evenodd"/><path d="M1299 1293 1859.65 1293" stroke="#000000" stroke-width="4" stroke-linecap="round" stroke-linejoin="round" stroke-miterlimit="10" fill="none" fill-rule="evenodd"/><path d="M1214.5 1293.5 1289.69 1293.5" stroke="#000000" stroke-width="3.33333" stroke-linecap="round" stroke-miterlimit="8" fill="none" fill-rule="evenodd"/><path d="M1264.5 1382.5 1551.47 1382.5" stroke="#000000" stroke-width="3.33333" stroke-linecap="round" stroke-miterlimit="8" fill="none" fill-rule="evenodd"/><path d="M1213.5 1517.5 1525.83 1517.5" stroke="#000000" stroke-width="3.33333" stroke-linecap="round" stroke-miterlimit="8" fill="none" fill-rule="evenodd"/><path d="M1275.17 1293.5 1275.17 1377.86C1275.17 1378.78 1274.42 1379.53 1273.5 1379.53 1272.58 1379.53 1271.83 1378.78 1271.83 1377.86L1271.83 1293.5C1271.83 1292.58 1272.58 1291.83 1273.5 1291.83 1274.42 1291.83 1275.17 1292.58 1275.17 1293.5ZM1280.89 1363.47 1273.5 1382.46 1266.11 1363.47C1265.78 1362.61 1266.2 1361.64 1267.06 1361.31 1267.92 1360.98 1268.89 1361.4 1269.22 1362.26L1275.05 1377.26 1271.95 1377.26 1277.78 1362.26C1278.11 1361.4 1279.08 1360.98 1279.94 1361.31 1280.8 1361.64 1281.22 1362.61 1280.89 1363.47Z"/><path d="M1224.17 1293.5 1224.17 1512.96C1224.17 1513.88 1223.42 1514.63 1222.5 1514.63 1221.58 1514.63 1220.83 1513.88 1220.83 1512.96L1220.83 1293.5C1220.83 1292.58 1221.58 1291.83 1222.5 1291.83 1223.42 1291.83 1224.17 1292.58 1224.17 1293.5ZM1229.89 1498.57 1222.5 1517.56 1215.11 1498.57C1214.78 1497.71 1215.2 1496.74 1216.06 1496.41 1216.92 1496.08 1217.89 1496.5 1218.22 1497.36L1224.05 1512.36 1220.95 1512.36 1226.78 1497.36C1227.11 1496.5 1228.08 1496.08 1228.94 1496.41 1229.8 1496.74 1230.22 1497.71 1229.89 1498.57Z"/><text font-family="Open Sans,Open Sans_MSFontService,sans-serif" font-style="italic" font-weight="300" font-size="37" transform="translate(1262.32 1273)">r<tspan font-style="normal" font-size="25" x="13.6666" y="8">1</tspan><tspan font-size="37" x="-50.3208" y="0">r</tspan><tspan font-style="normal" font-size="25" x="-36.6541" y="8">2</tspan></text><path d="M1433.09 1347.6 1435.52 1354.16 1433.33 1354.97 1430.91 1348.4ZM1436.33 1356.35 1438.75 1362.92 1436.56 1363.73 1434.14 1357.16ZM1439.56 1365.11 1440.22 1366.91 1440.21 1366.89 1442.06 1371.62 1439.89 1372.47 1438.03 1367.73 1437.37 1365.92ZM1442.91 1373.79 1445.46 1380.31 1443.29 1381.16 1440.74 1374.64ZM1446.31 1382.49 1447.84 1386.39 1447.83 1386.37 1448.9 1388.96 1446.75 1389.86 1445.67 1387.25 1444.14 1383.34ZM1449.8 1391.12 1452.47 1397.59 1450.32 1398.48 1447.64 1392.01ZM1453.37 1399.74 1455.95 1405.99 1455.94 1405.96 1456.04 1406.18 1453.9 1407.13 1453.8 1406.9 1451.21 1400.64ZM1456.98 1408.31 1459.83 1414.71 1457.69 1415.66 1454.85 1409.26ZM1460.77 1416.84 1463.61 1423.24 1461.48 1424.19 1458.64 1417.79ZM1464.56 1425.37 1464.63 1425.53 1464.61 1425.49 1467.57 1431.65 1465.47 1432.66 1462.5 1426.49 1462.43 1426.32ZM1468.58 1433.76 1471.62 1440.06 1469.51 1441.08 1466.48 1434.77ZM1472.63 1442.17 1473.93 1444.87 1473.91 1444.83 1475.77 1448.38 1473.7 1449.46 1471.83 1445.9 1470.52 1443.18ZM1476.85 1450.44 1480.1 1456.64 1478.04 1457.73 1474.78 1451.53ZM1481.19 1458.71 1483.91 1463.9 1483.89 1463.86 1484.46 1464.85 1482.43 1466.01 1481.85 1465 1479.12 1459.79ZM1485.62 1466.87 1489.11 1472.93 1487.09 1474.1 1483.6 1468.03ZM1490.28 1474.96 1493.77 1481.02 1491.75 1482.19 1488.26 1476.12ZM1494.93 1482.98 1498.69 1488.89 1496.72 1490.14 1492.97 1484.24ZM1499.94 1490.86 1503.69 1496.77 1501.73 1498.02 1497.97 1492.11ZM1504.94 1492.85 1505 1501.01 1497.65 1497.49C1497.07 1497.21 1496.82 1496.51 1497.1 1495.93 1497.38 1495.35 1498.07 1495.1 1498.65 1495.38L1504.33 1498.1 1502.66 1499.16 1502.61 1492.87C1502.61 1492.22 1503.12 1491.7 1503.77 1491.69 1504.41 1491.69 1504.94 1492.21 1504.94 1492.85Z"/><path d="M1416.01 1309.42 1419.07 1314.73 1418.99 1314.61 1419.52 1315.3 1417.66 1316.71 1417.09 1315.96 1413.99 1310.58ZM1420.93 1317.16 1422.74 1319.54 1422.65 1319.44 1425.42 1322.33 1423.74 1323.95 1420.92 1321.01 1419.07 1318.57ZM1426.96 1323.93 1431.7 1327.99 1431.62 1327.93 1432.24 1328.37 1430.88 1330.27 1430.22 1329.79 1425.44 1325.7ZM1434.14 1329.73 1436.87 1331.68 1436.8 1331.63 1439.91 1333.53 1438.69 1335.52 1435.54 1333.6 1432.78 1331.62ZM1441.9 1334.75 1442.42 1335.07 1442.31 1335.01 1448.08 1337.74 1447.08 1339.85 1441.26 1337.09 1440.68 1336.74ZM1450.19 1338.74 1454.44 1340.76 1454.31 1340.71 1456.49 1341.44 1455.74 1343.65 1453.5 1342.9 1449.19 1340.85ZM1458.7 1342.19 1465.33 1344.43 1464.58 1346.64 1457.95 1344.4ZM1467.45 1345.12 1474.26 1346.75 1473.72 1349.02 1466.91 1347.39ZM1476.53 1347.29 1480.27 1348.18 1480.17 1348.16 1483.29 1348.61 1482.95 1350.92 1479.78 1350.46 1475.99 1349.56ZM1485.6 1348.95 1492.52 1349.96 1492.19 1352.27 1485.26 1351.26ZM1494.76 1350.14 1501.74 1350.61 1501.58 1352.94 1494.6 1352.47ZM1498.4 1347.23 1505.01 1352 1497.82 1355.85C1497.25 1356.16 1496.54 1355.94 1496.24 1355.37 1495.93 1354.81 1496.15 1354.1 1496.72 1353.79L1502.26 1350.82 1502.13 1352.8 1497.03 1349.12C1496.51 1348.74 1496.39 1348.01 1496.77 1347.49 1497.14 1346.97 1497.87 1346.85 1498.4 1347.23Z"/><path d="M1571.89 1449.08 1564.89 1448.82 1564.98 1446.49 1571.98 1446.75ZM1562.56 1448.73 1559.16 1448.6 1555.5 1448.17 1555.77 1445.85 1559.39 1446.28 1559.29 1446.27 1562.65 1446.4ZM1553.18 1447.89 1546.23 1447.07 1546.5 1444.75 1553.45 1445.58ZM1543.82 1446.74 1536.96 1445.35 1537.43 1443.06 1544.29 1444.45ZM1534.68 1444.89 1529.72 1443.88 1527.76 1443.32 1528.41 1441.08 1530.32 1441.63 1530.23 1441.61 1535.14 1442.6ZM1525.52 1442.68 1518.79 1440.75 1519.43 1438.51 1526.16 1440.44ZM1516.55 1440.11 1515.45 1439.8 1509.88 1437.71 1510.69 1435.53 1516.22 1437.59 1516.13 1437.57 1517.19 1437.87ZM1507.69 1436.9 1501.48 1434.58 1501.06 1434.37 1502.05 1432.26 1502.44 1432.44 1502.35 1432.41 1508.51 1434.71ZM1498.95 1433.38 1492.62 1430.39 1493.61 1428.28 1499.94 1431.27ZM1490.51 1429.4 1488.02 1428.22 1484.25 1426.06 1485.41 1424.04 1489.14 1426.18 1489.06 1426.13 1491.5 1427.29ZM1482.23 1424.9 1476.15 1421.42 1477.31 1419.4 1483.39 1422.88ZM1474.1 1420.14 1468.32 1416.18 1469.64 1414.26 1475.42 1418.21ZM1466.4 1414.86 1462.72 1412.34 1464.03 1410.41 1467.72 1412.94ZM1567.39 1443.42 1574.13 1448 1567.06 1452.06C1566.5 1452.38 1565.79 1452.19 1565.47 1451.63 1565.15 1451.07 1565.34 1450.36 1565.9 1450.03L1571.35 1446.91 1571.28 1448.88 1566.07 1445.35C1565.54 1444.99 1565.4 1444.26 1565.76 1443.73 1566.13 1443.2 1566.85 1443.06 1567.39 1443.42Z"/><text font-family="Open Sans,Open Sans_MSFontService,sans-serif" font-weight="300" font-size="37" transform="translate(1502.12 1237)">Inner <tspan font-size="37" x="-35.1666" y="45">electrode</tspan><tspan font-size="37" x="-72.4381" y="331">Outer </tspan><tspan font-size="37" x="-102.771" y="376">electrode</tspan><tspan font-size="32" x="281.5" y="237">ω</tspan><tspan font-size="21" x="305" y="244">2</tspan></text><path d="M1676.68 1302.86 1676.15 1308.68 1674.12 1318.91 1671 1328.83 1666.87 1338.31 1661.78 1347.33 1655.74 1355.79 1648.81 1363.61 1641.06 1370.67 1638.82 1368.21 1646.5 1361.21 1646.38 1361.33 1653.19 1353.64 1653.08 1353.78 1659.02 1345.47 1658.92 1345.62 1663.92 1336.74 1663.85 1336.9 1667.91 1327.58 1667.85 1327.75 1670.91 1318 1670.87 1318.18 1672.87 1308.11 1672.84 1308.29 1673.36 1302.56ZM1666.36 1316.37 1675.44 1298.13 1681.07 1317.71C1681.33 1318.6 1680.82 1319.52 1679.93 1319.77 1679.05 1320.03 1678.13 1319.52 1677.87 1318.63L1673.42 1303.17 1676.51 1303.45 1669.35 1317.86C1668.94 1318.68 1667.94 1319.02 1667.11 1318.61 1666.29 1318.2 1665.95 1317.2 1666.36 1316.37Z"/><text font-family="Open Sans,Open Sans_MSFontService,sans-serif" font-weight="300" font-size="32" transform="translate(1675.31 1344)">ω<tspan font-size="21" x="23.5" y="7">1</tspan></text><path d="M1407.64 1313.32C1406.5 1313.15 1405.71 1312.08 1405.88 1310.94 1406.05 1309.8 1407.12 1309.02 1408.26 1309.19 1409.4 1309.36 1410.18 1310.42 1410.01 1311.56 1409.84 1312.7 1408.78 1313.49 1407.64 1313.32Z" stroke="#000000" stroke-width="2.33333" stroke-miterlimit="8" fill="#FFBE0B" fill-rule="evenodd"/><path d="M1414.83 1312.49C1413.68 1312.32 1412.9 1311.26 1413.07 1310.11 1413.24 1308.97 1414.31 1308.19 1415.45 1308.36 1416.59 1308.53 1417.37 1309.6 1417.2 1310.74 1417.03 1311.88 1415.97 1312.66 1414.83 1312.49Z" stroke="#000000" stroke-width="2.33333" stroke-miterlimit="8" fill="#FFBE0B" fill-rule="evenodd"/><path d="M1419.48 1313.02C1418.34 1312.85 1417.55 1311.79 1417.72 1310.65 1417.89 1309.51 1418.96 1308.72 1420.1 1308.89 1421.24 1309.06 1422.02 1310.13 1421.85 1311.27 1421.68 1312.41 1420.62 1313.2 1419.48 1313.02Z" stroke="#000000" stroke-width="2.33333" stroke-miterlimit="8" fill="#FFBE0B" fill-rule="evenodd"/><path d="M1411.72 1316.37C1410.58 1316.2 1409.8 1315.13 1409.97 1313.99 1410.14 1312.85 1411.2 1312.07 1412.34 1312.24 1413.48 1312.41 1414.27 1313.47 1414.1 1314.61 1413.93 1315.76 1412.86 1316.54 1411.72 1316.37Z" stroke="#000000" stroke-width="2.33333" stroke-miterlimit="8" fill="#FFBE0B" fill-rule="evenodd"/><path d="M1414.05 1320.56C1412.91 1320.39 1412.12 1319.32 1412.29 1318.18 1412.47 1317.04 1413.53 1316.26 1414.67 1316.43 1415.81 1316.6 1416.6 1317.66 1416.42 1318.8 1416.25 1319.94 1415.19 1320.73 1414.05 1320.56Z" stroke="#000000" stroke-width="2.33333" stroke-miterlimit="8" fill="#FFBE0B" fill-rule="evenodd"/><path d="M1421.18 1309.14C1420.04 1308.97 1419.26 1307.91 1419.43 1306.77 1419.6 1305.63 1420.66 1304.84 1421.8 1305.01 1422.95 1305.19 1423.73 1306.25 1423.56 1307.39 1423.39 1308.53 1422.32 1309.32 1421.18 1309.14Z" stroke="#000000" stroke-width="2.33333" stroke-miterlimit="8" fill="#FFBE0B" fill-rule="evenodd"/><path d="M0 3.38415C-4.30847e-16 1.51513 1.51513 -4.30847e-16 3.38415 -8.61694e-16 5.25316-1.72339e-15 6.76829 1.51513 6.76829 3.38415 6.76829 5.25316 5.25316 6.76829 3.38415 6.76829 1.51513 6.76829-2.15424e-15 5.25316 0 3.38415Z" stroke="#000000" stroke-width="2.33333" stroke-miterlimit="8" fill="#FFBE0B" fill-rule="evenodd" transform="matrix(-0.965926 0.258819 0.258819 0.965926 1466.47 1397.61)"/><path d="M0 5.0906C-6.48102e-16 2.27914 2.27914 -6.48102e-16 5.0906-1.2962e-15 7.90207-2.59241e-15 10.1812 2.27914 10.1812 5.0906 10.1812 7.90207 7.90207 10.1812 5.0906 10.1812 2.27914 10.1812-3.24051e-15 7.90207 0 5.0906Z" stroke="#000000" stroke-width="2.33333" stroke-miterlimit="8" fill="#FFBE0B" fill-rule="evenodd" transform="matrix(-0.965926 0.258819 0.258819 0.965926 1476.99 1403.89)"/><path d="M0 2.4042C-3.06087e-16 1.0764 1.0764 -3.06087e-16 2.4042 -6.12173e-16 3.732-1.22435e-15 4.8084 1.0764 4.8084 2.4042 4.8084 3.732 3.732 4.8084 2.4042 4.8084 1.0764 4.8084-1.53043e-15 3.732 0 2.4042Z" stroke="#000000" stroke-width="2.33333" stroke-miterlimit="8" fill="#FFBE0B" fill-rule="evenodd" transform="matrix(-0.965926 0.258819 0.258819 0.965926 1471.97 1399.89)"/><path d="M1424 1351.5C1424 1346.81 1427.81 1343 1432.5 1343 1437.19 1343 1441 1346.81 1441 1351.5 1441 1356.19 1437.19 1360 1432.5 1360 1427.81 1360 1424 1356.19 1424 1351.5Z" stroke="#000000" stroke-width="2.33333" stroke-miterlimit="8" fill="#FFBE0B" fill-rule="evenodd"/><path d="M1412.5 1195.5 1412.5 1282.37" stroke="#000000" stroke-width="3.33333" stroke-linecap="round" stroke-miterlimit="8" fill="none" fill-rule="evenodd"/><path d="M0 0 69.4552 0.000104987" stroke="#000000" stroke-width="3.33333" stroke-linecap="round" stroke-miterlimit="8" fill="none" fill-rule="evenodd" transform="matrix(1.83697e-16 1 1 -1.83697e-16 1344.5 1212.5)"/><path d="M1.66667 4.59998 1.66676 63.74C1.66677 64.6605 0.920575 65.4067 0.000100481 65.4067-0.920374 65.4067-1.66657 64.6605-1.66657 63.74L-1.66666 4.59999C-1.66666 3.67951-0.92047 2.93332 4.50629e-06 2.93332 0.920479 2.93332 1.66667 3.67951 1.66667 4.59998ZM-7.38665 18.9959 8.22959e-08 0.00161745 7.3867 18.9959C7.72033 19.8538 7.29533 20.8197 6.43744 21.1533 5.57956 21.487 4.61365 21.062 4.28002 20.2041L-1.55333 5.20408 1.55335 5.20407-4.27996 20.2041C-4.61358 21.062-5.57949 21.487-6.43738 21.1533-7.29527 20.8197-7.72027 19.8538-7.38665 18.9959ZM7.38675 49.344 0.000104831 68.3383-7.3866 49.344C-7.72022 48.4861-7.29522 47.5202-6.43734 47.1866-5.57945 46.853-4.61354 47.278-4.27992 48.1359L1.55344 63.1359-1.55324 63.1359 4.28007 48.1359C4.61369 47.278 5.5796 46.853 6.43748 47.1866 7.29537 47.5202 7.72037 48.4861 7.38675 49.344Z" transform="matrix(1.83697e-16 1 1 -1.83697e-16 1344.5 1220.5)"/><text font-family="Open Sans,Open Sans_MSFontService,sans-serif" font-weight="300" font-size="37" transform="translate(1296.28 1231)">δ<tspan font-style="italic" font-size="37" x="109.784" y="-58">r</tspan><tspan font-size="25" x="123.451" y="-50">c</tspan><tspan fill="#2525C6" font-style="italic" font-size="37" x="-190.664" y="182">r</tspan></text><path d="M1868.5 1290.83 1908.43 1290.83C1909.35 1290.83 1910.09 1291.58 1910.09 1292.5 1910.09 1293.42 1909.35 1294.17 1908.43 1294.17L1868.5 1294.17C1867.58 1294.17 1866.83 1293.42 1866.83 1292.5 1866.83 1291.58 1867.58 1290.83 1868.5 1290.83ZM1894.03 1285.11 1913.02 1292.5 1894.03 1299.89C1893.17 1300.22 1892.21 1299.8 1891.87 1298.94 1891.54 1298.08 1891.96 1297.11 1892.82 1296.78L1907.82 1290.95 1907.82 1294.05 1892.82 1288.22C1891.96 1287.89 1891.54 1286.92 1891.87 1286.06 1892.21 1285.2 1893.17 1284.78 1894.03 1285.11Z" fill="#2525C6"/><text fill="#2525C6" font-family="Open Sans,Open Sans_MSFontService,sans-serif" font-style="italic" font-weight="300" font-size="37" transform="translate(1875.66 1280)">r<tspan font-style="normal" font-size="37" x="-157.067" y="-43">θ</tspan><tspan font-size="37" x="-1511.08" y="-91">z</tspan><tspan fill="#000000" font-size="37" x="-197.576" y="307">v</tspan><tspan fill="#000000" font-style="normal" font-size="25" x="-181.243" y="315">θ</tspan></text><path d="M1656.5 1577.5 1669.34 1577.5" stroke="#000000" stroke-width="3.33333" stroke-linecap="round" stroke-miterlimit="8" fill="none" fill-rule="evenodd"/><path d="M1656.26 1577.61 1624.5 1498.5" stroke="#000000" stroke-width="3.33333" stroke-linecap="round" stroke-miterlimit="8" fill="none" fill-rule="evenodd"/><text font-family="Open Sans,Open Sans_MSFontService,sans-serif" font-style="italic" font-weight="300" font-size="37" transform="translate(688.43 1581)">v<tspan font-style="normal" font-size="25" x="16.3333" y="8">z</tspan></text><path d="M666.5 1572.5 679.336 1572.5" stroke="#000000" stroke-width="3.33333" stroke-linecap="round" stroke-miterlimit="8" fill="none" fill-rule="evenodd"/><path d="M665.935 1572.41 634.5 1496.5" stroke="#000000" stroke-width="3.33333" stroke-linecap="round" stroke-miterlimit="8" fill="none" fill-rule="evenodd"/><text font-family="Open Sans,Open Sans_MSFontService,sans-serif" font-weight="300" font-size="37" transform="translate(2.06425 1451)">Insulator</text><path d="M0 0 12.8358 0.000104987" stroke="#000000" stroke-width="3.33333" stroke-linecap="round" stroke-miterlimit="8" fill="none" fill-rule="evenodd" transform="matrix(-1 0 0 1 174.336 1443.5)"/><path d="M0.85939-1.42801 103.104 60.1037C103.893 60.5783 104.147 61.6024 103.673 62.3911 103.198 63.1797 102.174 63.4343 101.385 62.9597L-0.85939 1.42801C-1.64806 0.953387-1.90264-0.0707193-1.42801-0.85939-0.953387-1.64806 0.0707193-1.90264 0.85939-1.42801ZM93.7191 47.7797 106.185 63.9028 86.1014 60.4376C85.1944 60.2811 84.5859 59.4189 84.7424 58.5119 84.8989 57.6048 85.7611 56.9963 86.6682 57.1528L102.528 59.8893 100.926 62.5511 91.082 49.8186C90.519 49.0904 90.6529 48.0436 91.3811 47.4806 92.1093 46.9176 93.1561 47.0515 93.7191 47.7797Z" transform="matrix(1 0 0 -1 174.5 1443.4)"/><path d="M1323.5 1219.5 1351.7 1219.5" stroke="#000000" stroke-width="3.33333" stroke-linecap="round" stroke-miterlimit="8" fill="none" fill-rule="evenodd"/><path d="M331.1 1242.83 473.828 1242.83C474.748 1242.83 475.494 1243.58 475.494 1244.5 475.494 1245.42 474.748 1246.17 473.828 1246.17L331.1 1246.17C330.18 1246.17 329.433 1245.42 329.433 1244.5 329.433 1243.58 330.18 1242.83 331.1 1242.83ZM345.496 1251.89 326.502 1244.5 345.496 1237.11C346.354 1236.78 347.32 1237.2 347.653 1238.06 347.987 1238.92 347.562 1239.89 346.704 1240.22L331.704 1246.05 331.704 1242.95 346.704 1248.78C347.562 1249.11 347.987 1250.08 347.653 1250.94 347.32 1251.8 346.354 1252.22 345.496 1251.89Z"/><path d="M4.60007-1.66666 151.864-1.66656C152.785-1.66656 153.531-0.920368 153.531 0.000106139 153.531 0.920581 152.785 1.66677 151.864 1.66677L4.60006 1.66667C3.67959 1.66667 2.9334 0.920477 2.9334 2.02792e-06 2.9334-0.920473 3.67959-1.66666 4.60007-1.66666ZM18.9959 7.38669 0.00161704 1.65739e-07 18.9959-7.38666C19.8538-7.72028 20.8197-7.29528 21.1533-6.4374 21.487-5.57951 21.062-4.6136 20.2041-4.27998L5.20408 1.55334 5.20408-1.55334 20.2041 4.28001C21.062 4.61363 21.487 5.57954 21.1533 6.43742 20.8197 7.29531 19.8538 7.72031 18.9959 7.38669Z" transform="matrix(-1 0 0 1 834.365 1244.5)"/></g></svg>