<svg width="96" height="96" xmlns="http://www.w3.org/2000/svg" xmlns:xlink="http://www.w3.org/1999/xlink" overflow="hidden"><defs><clipPath id="clip0"><rect x="0" y="0" width="96" height="96"/></clipPath></defs><g clip-path="url(#clip0)"><path d="M0 0 96 0 96 96 0 96Z" fill="#FFFFFF" fill-rule="evenodd"/><path d="M0 48C-6.11104e-15 21.4903 21.4903-6.11104e-15 48-1.22221e-14 74.5097-2.44442e-14 96 21.4903 96 48 96 74.5097 74.5097 96 48 96 21.4903 96-3.05552e-14 74.5097 0 48Z" fill="#EBA6BA" fill-rule="evenodd"/><path d="M6 48C6 24.804 24.804 6 48 6 71.196 6 90 24.804 90 48 90 71.196 71.196 90 48 90 24.804 90 6 71.196 6 48Z" fill="#FFFFFF" fill-rule="evenodd"/></g></svg>